<svg version="1.1" xmlns="http://www.w3.org/2000/svg" xmlns:xlink="http://www.w3.org/1999/xlink" width="807.8108891324555" height="330"><defs></defs><g transform="translate(0,0)"><g><rect fill="#FFFFFF" stroke="none" x="0" y="0" width="807.8108891324555" height="330"></rect></g><g transform="translate(0,0) matrix(0.866025403784438,-0.5000000000000012,0.5000000000000012,0.866025403784438,389.7131582256282,259.59936490538917)"><g><g transform="translate(0,0) scale(1.45,0.5)"><g><g transform="scale(0.6896551724137931,2)"><path fill="#FFFFFF" stroke="none" d="M 0 15 L 120 15 L 120 0 L 145 25 L 120 50 L 120 35 L 0 35 L 0 15 Z"></path><path fill="none" stroke="#333333" d="M 0 15 M 0 15 L 120 15 L 120 0 L 145 25 L 120 50 L 120 35 L 0 35 L 0 15 Z" stroke-miterlimit="10" stroke-width="2"></path></g></g></g></g></g><g transform="translate(0,0) matrix(0.866025403784438,-0.5000000000000012,0.5000000000000012,0.866025403784438,610.4570600599758,161.84936490538908)"><g><g transform="translate(0,0) scale(0.74,0.5)"><g><g transform="scale(1.3513513513513513,2)"><path fill="#FFFFFF" stroke="none" d="M 0 15 L 49.00000000000001 15 L 49.00000000000001 0 L 74 25 L 49.00000000000001 50 L 49.00000000000001 35 L 0 35 L 0 15 Z"></path><path fill="none" stroke="#333333" d="M 0 15 M 0 15 L 49.00000000000001 15 L 49.00000000000001 0 L 74 25 L 49.00000000000001 50 L 49.00000000000001 35 L 0 35 L 0 15 Z" stroke-miterlimit="10" stroke-width="2"></path></g></g></g></g></g><g transform="translate(0,0) matrix(0.9659258262890683,0.2588190451025208,-0.2588190451025208,0.9659258262890683,439.4512299705505,36.81714991179181)"><g><g transform="translate(0,0) scale(2.63,0.5)"><g><g transform="scale(0.3802281368821293,2)"><path fill="#FFFFFF" stroke="none" d="M 0 15 L 238 15 L 238 0 L 263 25 L 238 50 L 238 35 L 0 35 L 0 15 Z"></path><path fill="none" stroke="#333333" d="M 0 15 M 0 15 L 238 15 L 238 0 L 263 25 L 238 50 L 238 35 L 0 35 L 0 15 Z" stroke-miterlimit="10" stroke-width="2"></path></g></g></g></g></g><g transform="translate(0,0) matrix(1,0,0,1,20,20)"><g><g transform="translate(0,0) scale(1,0.75)"><g><path fill="#b6d7a8" stroke="none" d="M 0 0 L 100 0 Q 100 0 100 0 L 100 100 Q 100 100 100 100 L 0 100 Q 0 100 0 100 L 0 0 Q 0 0 0 0 Z"></path><g transform="scale(1,1.3333333333333333)"><path fill="none" stroke="none" d="M 0 0 L 100 0 Q 100 0 100 0 L 100 75 Q 100 75 100 75 L 0 75 Q 0 75 0 75 L 0 0 Q 0 0 0 0 Z"></path><path fill="none" stroke="#333333" d="M 0 0 M 0 0 L 100 0 Q 100 0 100 0 L 100 75 Q 100 75 100 75 L 0 75 Q 0 75 0 75 L 0 0 Q 0 0 0 0 Z" stroke-miterlimit="10" stroke-width="2"></path></g></g><g><g transform="scale(1,1.3333333333333333)"><path fill="rgb(0,0,0)" stroke="none" d="M 2 1.5 L 2 72.75 L 97 72.75 L 97 2.25 L 3 2.25 Z" fill-opacity="0" opacity="0"></path><path fill="none" stroke="#3C7626" d="M 2 1.5 M 2 1.5 L 2 5.5 M 2 5.5 M 2 7.5 L 2 11.5 M 2 11.5 M 2 13.5 L 2 17.5 M 2 17.5 M 2 19.5 L 2 23.5 M 2 23.5 M 2 25.5 L 2 29.5 M 2 29.5 M 2 31.5 L 2 35.5 M 2 35.5 M 2 37.5 L 2 41.5 M 2 41.5 M 2 43.5 L 2 47.5 M 2 47.5 M 2 49.5 L 2 53.5 M 2 53.5 M 2 55.5 L 2 59.5 M 2 59.5 M 2 61.5 L 2 65.5 M 2 65.5 M 2 67.5 L 2 71.5 M 2 71.5 M 2.75 72.75 L 6.75 72.75 M 6.75 72.75 M 8.75 72.75 L 12.75 72.75 M 12.75 72.75 M 14.75 72.75 L 18.75 72.75 M 18.75 72.75 M 20.75 72.75 L 24.75 72.75 M 24.75 72.75 M 26.75 72.75 L 30.75 72.75 M 30.75 72.75 M 32.75 72.75 L 36.75 72.75 M 36.75 72.75 M 38.75 72.75 L 42.75 72.75 M 42.75 72.75 M 44.75 72.75 L 48.75 72.75 M 48.75 72.75 M 50.75 72.75 L 54.75 72.75 M 54.75 72.75 M 56.75 72.75 L 60.75 72.75 M 60.75 72.75 M 62.75 72.75 L 66.75 72.75 M 66.75 72.75 M 68.75 72.75 L 72.75 72.75 M 72.75 72.75 M 74.75 72.75 L 78.75 72.75 M 78.75 72.75 M 80.75 72.75 L 84.75 72.75 M 84.75 72.75 M 86.75 72.75 L 90.75 72.75 M 90.75 72.75 M 92.75 72.75 L 96.75 72.75 M 96.75 72.75 M 97 71 L 97 67 M 97 67 M 97 65 L 97 61 M 97 61 M 97 59 L 97 55 M 97 55 M 97 53 L 97 49 M 97 49 M 97 47 L 97 43 M 97 43 M 97 41 L 97 37 M 97 37 M 97 35 L 97 31 M 97 31 M 97 29 L 97 25 M 97 25 M 97 23 L 97 19 M 97 19 M 97 17 L 97 13 M 97 13 M 97 11 L 97 7 M 97 7 M 97 5 L 97 2.25 L 95.75 2.25 M 95.75 2.25 M 93.75 2.25 L 89.75 2.25 M 89.75 2.25 M 87.75 2.25 L 83.75 2.25 M 83.75 2.25 M 81.75 2.25 L 77.75 2.25 M 77.75 2.25 M 75.75 2.25 L 71.75 2.25 M 71.75 2.25 M 69.75 2.25 L 65.75 2.25 M 65.75 2.25 M 63.75 2.25 L 59.75 2.25 M 59.75 2.25 M 57.75 2.25 L 53.75 2.25 M 53.75 2.25 M 51.75 2.25 L 47.75 2.25 M 47.75 2.25 M 45.75 2.25 L 41.75 2.25 M 41.75 2.25 M 39.75 2.25 L 35.75 2.25 M 35.75 2.25 M 33.75 2.25 L 29.75 2.25 M 29.75 2.25 M 27.75 2.25 L 23.75 2.25 M 23.75 2.25 M 21.75 2.25 L 17.75 2.25 M 17.75 2.25 M 15.75 2.25 L 11.75 2.25 M 11.75 2.25 M 9.75 2.25 L 5.75 2.25 M 5.75 2.25 M 3.75 2.25 L 3 2.25 Z" stroke-miterlimit="10" stroke-width="2" opacity="0"></path></g></g></g></g></g><g transform="scale(1,1) matrix(1,0,0,1,22,20) translate(2,30.5)"><text fill="#000000" stroke="none" font-family="Arial" font-size="12px" font-style="normal" font-weight="normal" text-decoration="none" x="5" y="11">Steering wheel</text></g><g transform="translate(0,0) matrix(1,0,0,1,120,32.5)"><g><g transform="translate(0,0) scale(0.7,0.5)"><g><g transform="scale(1.4285714285714286,2)"><path fill="#FFFFFF" stroke="none" d="M 0 15 L 44.99999999999999 15 L 44.99999999999999 0 L 70 25 L 44.99999999999999 50 L 44.99999999999999 35 L 0 35 L 0 15 Z"></path><path fill="none" stroke="#333333" d="M 0 15 M 0 15 L 44.99999999999999 15 L 44.99999999999999 0 L 70 25 L 44.99999999999999 50 L 44.99999999999999 35 L 0 35 L 0 15 Z" stroke-miterlimit="10" stroke-width="2"></path></g></g></g></g></g><g transform="translate(0,0) matrix(1,0,0,1,360,20)"><g><g transform="translate(0,0) scale(1,0.75)"><g><path fill="#FFFFFF" stroke="none" d="M 0 0 L 100 0 Q 100 0 100 0 L 100 100 Q 100 100 100 100 L 0 100 Q 0 100 0 100 L 0 0 Q 0 0 0 0 Z"></path><g transform="scale(1,1.3333333333333333)"><path fill="none" stroke="none" d="M 0 0 L 100 0 Q 100 0 100 0 L 100 75 Q 100 75 100 75 L 0 75 Q 0 75 0 75 L 0 0 Q 0 0 0 0 Z"></path><path fill="none" stroke="#333333" d="M 0 0 M 0 0 L 100 0 Q 100 0 100 0 L 100 75 Q 100 75 100 75 L 0 75 Q 0 75 0 75 L 0 0 Q 0 0 0 0 Z" stroke-miterlimit="10" stroke-width="2"></path></g></g><g><g transform="scale(1,1.3333333333333333)"><path fill="rgb(0,0,0)" stroke="none" d="M 2 1.5 L 2 72.75 L 97 72.75 L 97 2.25 L 3 2.25 Z" fill-opacity="0" opacity="0"></path><path fill="none" stroke="#3C7626" d="M 2 1.5 M 2 1.5 L 2 5.5 M 2 5.5 M 2 7.5 L 2 11.5 M 2 11.5 M 2 13.5 L 2 17.5 M 2 17.5 M 2 19.5 L 2 23.5 M 2 23.5 M 2 25.5 L 2 29.5 M 2 29.5 M 2 31.5 L 2 35.5 M 2 35.5 M 2 37.5 L 2 41.5 M 2 41.5 M 2 43.5 L 2 47.5 M 2 47.5 M 2 49.5 L 2 53.5 M 2 53.5 M 2 55.5 L 2 59.5 M 2 59.5 M 2 61.5 L 2 65.5 M 2 65.5 M 2 67.5 L 2 71.5 M 2 71.5 M 2.75 72.75 L 6.75 72.75 M 6.75 72.75 M 8.75 72.75 L 12.75 72.75 M 12.75 72.75 M 14.75 72.75 L 18.75 72.75 M 18.75 72.75 M 20.75 72.75 L 24.75 72.75 M 24.75 72.75 M 26.75 72.75 L 30.75 72.75 M 30.75 72.75 M 32.75 72.75 L 36.75 72.75 M 36.75 72.75 M 38.75 72.75 L 42.75 72.75 M 42.75 72.75 M 44.75 72.75 L 48.75 72.75 M 48.75 72.75 M 50.75 72.75 L 54.75 72.75 M 54.75 72.75 M 56.75 72.75 L 60.75 72.75 M 60.75 72.75 M 62.75 72.75 L 66.75 72.75 M 66.75 72.75 M 68.75 72.75 L 72.75 72.75 M 72.75 72.75 M 74.75 72.75 L 78.75 72.75 M 78.75 72.75 M 80.75 72.75 L 84.75 72.75 M 84.75 72.75 M 86.75 72.75 L 90.75 72.75 M 90.75 72.75 M 92.75 72.75 L 96.75 72.75 M 96.75 72.75 M 97 71 L 97 67 M 97 67 M 97 65 L 97 61 M 97 61 M 97 59 L 97 55 M 97 55 M 97 53 L 97 49 M 97 49 M 97 47 L 97 43 M 97 43 M 97 41 L 97 37 M 97 37 M 97 35 L 97 31 M 97 31 M 97 29 L 97 25 M 97 25 M 97 23 L 97 19 M 97 19 M 97 17 L 97 13 M 97 13 M 97 11 L 97 7 M 97 7 M 97 5 L 97 2.25 L 95.75 2.25 M 95.75 2.25 M 93.75 2.25 L 89.75 2.25 M 89.75 2.25 M 87.75 2.25 L 83.75 2.25 M 83.75 2.25 M 81.75 2.25 L 77.75 2.25 M 77.75 2.25 M 75.75 2.25 L 71.75 2.25 M 71.75 2.25 M 69.75 2.25 L 65.75 2.25 M 65.75 2.25 M 63.75 2.25 L 59.75 2.25 M 59.75 2.25 M 57.75 2.25 L 53.75 2.25 M 53.75 2.25 M 51.75 2.25 L 47.75 2.25 M 47.75 2.25 M 45.75 2.25 L 41.75 2.25 M 41.75 2.25 M 39.75 2.25 L 35.75 2.25 M 35.75 2.25 M 33.75 2.25 L 29.75 2.25 M 29.75 2.25 M 27.75 2.25 L 23.75 2.25 M 23.75 2.25 M 21.75 2.25 L 17.75 2.25 M 17.75 2.25 M 15.75 2.25 L 11.75 2.25 M 11.75 2.25 M 9.75 2.25 L 5.75 2.25 M 5.75 2.25 M 3.75 2.25 L 3 2.25 Z" stroke-miterlimit="10" stroke-width="2" opacity="0"></path></g></g></g></g></g><g transform="scale(1,1) matrix(1,0,0,1,362,20) translate(2,30.5)"><text fill="#000000" stroke="none" font-family="Arial" font-size="12px" font-style="normal" font-weight="normal" text-decoration="none" x="13.5" y="11">Axle turning</text></g><g transform="translate(0,0) matrix(1,0,0,1,20,140)"><g><g transform="translate(0,0) scale(1,0.75)"><g><path fill="#b6d7a8" stroke="none" d="M 0 0 L 100 0 Q 100 0 100 0 L 100 100 Q 100 100 100 100 L 0 100 Q 0 100 0 100 L 0 0 Q 0 0 0 0 Z"></path><g transform="scale(1,1.3333333333333333)"><path fill="none" stroke="none" d="M 0 0 L 100 0 Q 100 0 100 0 L 100 75 Q 100 75 100 75 L 0 75 Q 0 75 0 75 L 0 0 Q 0 0 0 0 Z"></path><path fill="none" stroke="#333333" d="M 0 0 M 0 0 L 100 0 Q 100 0 100 0 L 100 75 Q 100 75 100 75 L 0 75 Q 0 75 0 75 L 0 0 Q 0 0 0 0 Z" stroke-miterlimit="10" stroke-width="2"></path></g></g><g><g transform="scale(1,1.3333333333333333)"><path fill="rgb(0,0,0)" stroke="none" d="M 2 1.5 L 2 72.75 L 97 72.75 L 97 2.25 L 3 2.25 Z" fill-opacity="0" opacity="0"></path><path fill="none" stroke="#3C7626" d="M 2 1.5 M 2 1.5 L 2 5.5 M 2 5.5 M 2 7.5 L 2 11.5 M 2 11.5 M 2 13.5 L 2 17.5 M 2 17.5 M 2 19.5 L 2 23.5 M 2 23.5 M 2 25.5 L 2 29.5 M 2 29.5 M 2 31.5 L 2 35.5 M 2 35.5 M 2 37.5 L 2 41.5 M 2 41.5 M 2 43.5 L 2 47.5 M 2 47.5 M 2 49.5 L 2 53.5 M 2 53.5 M 2 55.5 L 2 59.5 M 2 59.5 M 2 61.5 L 2 65.5 M 2 65.5 M 2 67.5 L 2 71.5 M 2 71.5 M 2.75 72.75 L 6.75 72.75 M 6.75 72.75 M 8.75 72.75 L 12.75 72.75 M 12.75 72.75 M 14.75 72.75 L 18.75 72.75 M 18.75 72.75 M 20.75 72.75 L 24.75 72.75 M 24.75 72.75 M 26.75 72.75 L 30.75 72.75 M 30.75 72.75 M 32.75 72.75 L 36.75 72.75 M 36.75 72.75 M 38.75 72.75 L 42.75 72.75 M 42.75 72.75 M 44.75 72.75 L 48.75 72.75 M 48.75 72.75 M 50.75 72.75 L 54.75 72.75 M 54.75 72.75 M 56.75 72.75 L 60.75 72.75 M 60.75 72.75 M 62.75 72.75 L 66.75 72.75 M 66.75 72.75 M 68.75 72.75 L 72.75 72.75 M 72.75 72.75 M 74.75 72.75 L 78.75 72.75 M 78.75 72.75 M 80.75 72.75 L 84.75 72.75 M 84.75 72.75 M 86.75 72.75 L 90.75 72.75 M 90.75 72.75 M 92.75 72.75 L 96.75 72.75 M 96.75 72.75 M 97 71 L 97 67 M 97 67 M 97 65 L 97 61 M 97 61 M 97 59 L 97 55 M 97 55 M 97 53 L 97 49 M 97 49 M 97 47 L 97 43 M 97 43 M 97 41 L 97 37 M 97 37 M 97 35 L 97 31 M 97 31 M 97 29 L 97 25 M 97 25 M 97 23 L 97 19 M 97 19 M 97 17 L 97 13 M 97 13 M 97 11 L 97 7 M 97 7 M 97 5 L 97 2.25 L 95.75 2.25 M 95.75 2.25 M 93.75 2.25 L 89.75 2.25 M 89.75 2.25 M 87.75 2.25 L 83.75 2.25 M 83.75 2.25 M 81.75 2.25 L 77.75 2.25 M 77.75 2.25 M 75.75 2.25 L 71.75 2.25 M 71.75 2.25 M 69.75 2.25 L 65.75 2.25 M 65.75 2.25 M 63.75 2.25 L 59.75 2.25 M 59.75 2.25 M 57.75 2.25 L 53.75 2.25 M 53.75 2.25 M 51.75 2.25 L 47.75 2.25 M 47.75 2.25 M 45.75 2.25 L 41.75 2.25 M 41.75 2.25 M 39.75 2.25 L 35.75 2.25 M 35.75 2.25 M 33.75 2.25 L 29.75 2.25 M 29.75 2.25 M 27.75 2.25 L 23.75 2.25 M 23.75 2.25 M 21.75 2.25 L 17.75 2.25 M 17.75 2.25 M 15.75 2.25 L 11.75 2.25 M 11.75 2.25 M 9.75 2.25 L 5.75 2.25 M 5.75 2.25 M 3.75 2.25 L 3 2.25 Z" stroke-miterlimit="10" stroke-width="2" opacity="0"></path></g></g></g></g></g><g transform="scale(1,1) matrix(1,0,0,1,22,140) translate(2,30.5)"><text fill="#000000" stroke="none" font-family="Arial" font-size="12px" font-style="normal" font-weight="normal" text-decoration="none" x="18" y="11">Gas pedal</text></g><g transform="translate(0,0) matrix(1,0,0,1,190,140)"><g><g transform="translate(0,0) scale(1,0.75)"><g><path fill="#FFFFFF" stroke="none" d="M 0 0 L 100 0 Q 100 0 100 0 L 100 100 Q 100 100 100 100 L 0 100 Q 0 100 0 100 L 0 0 Q 0 0 0 0 Z"></path><g transform="scale(1,1.3333333333333333)"><path fill="none" stroke="none" d="M 0 0 L 100 0 Q 100 0 100 0 L 100 75 Q 100 75 100 75 L 0 75 Q 0 75 0 75 L 0 0 Q 0 0 0 0 Z"></path><path fill="none" stroke="#333333" d="M 0 0 M 0 0 L 100 0 Q 100 0 100 0 L 100 75 Q 100 75 100 75 L 0 75 Q 0 75 0 75 L 0 0 Q 0 0 0 0 Z" stroke-miterlimit="10" stroke-width="2"></path></g></g><g><g transform="scale(1,1.3333333333333333)"><path fill="rgb(0,0,0)" stroke="none" d="M 2 1.5 L 2 72.75 L 97 72.75 L 97 2.25 L 3 2.25 Z" fill-opacity="0" opacity="0"></path><path fill="none" stroke="#3C7626" d="M 2 1.5 M 2 1.5 L 2 5.5 M 2 5.5 M 2 7.5 L 2 11.5 M 2 11.5 M 2 13.5 L 2 17.5 M 2 17.5 M 2 19.5 L 2 23.5 M 2 23.5 M 2 25.5 L 2 29.5 M 2 29.5 M 2 31.5 L 2 35.5 M 2 35.5 M 2 37.5 L 2 41.5 M 2 41.5 M 2 43.5 L 2 47.5 M 2 47.5 M 2 49.5 L 2 53.5 M 2 53.5 M 2 55.5 L 2 59.5 M 2 59.5 M 2 61.5 L 2 65.5 M 2 65.5 M 2 67.5 L 2 71.5 M 2 71.5 M 2.75 72.75 L 6.75 72.75 M 6.75 72.75 M 8.75 72.75 L 12.75 72.75 M 12.75 72.75 M 14.75 72.75 L 18.75 72.75 M 18.75 72.75 M 20.75 72.75 L 24.75 72.75 M 24.75 72.75 M 26.75 72.75 L 30.75 72.75 M 30.75 72.75 M 32.75 72.75 L 36.75 72.75 M 36.75 72.75 M 38.75 72.75 L 42.75 72.75 M 42.75 72.75 M 44.75 72.75 L 48.75 72.75 M 48.75 72.75 M 50.75 72.75 L 54.75 72.75 M 54.75 72.75 M 56.75 72.75 L 60.75 72.75 M 60.75 72.75 M 62.75 72.75 L 66.75 72.75 M 66.75 72.75 M 68.75 72.75 L 72.75 72.75 M 72.75 72.75 M 74.75 72.75 L 78.75 72.75 M 78.75 72.75 M 80.75 72.75 L 84.75 72.75 M 84.75 72.75 M 86.75 72.75 L 90.75 72.75 M 90.75 72.75 M 92.75 72.75 L 96.75 72.75 M 96.75 72.75 M 97 71 L 97 67 M 97 67 M 97 65 L 97 61 M 97 61 M 97 59 L 97 55 M 97 55 M 97 53 L 97 49 M 97 49 M 97 47 L 97 43 M 97 43 M 97 41 L 97 37 M 97 37 M 97 35 L 97 31 M 97 31 M 97 29 L 97 25 M 97 25 M 97 23 L 97 19 M 97 19 M 97 17 L 97 13 M 97 13 M 97 11 L 97 7 M 97 7 M 97 5 L 97 2.25 L 95.75 2.25 M 95.75 2.25 M 93.75 2.25 L 89.75 2.25 M 89.75 2.25 M 87.75 2.25 L 83.75 2.25 M 83.75 2.25 M 81.75 2.25 L 77.75 2.25 M 77.75 2.25 M 75.75 2.25 L 71.75 2.25 M 71.75 2.25 M 69.75 2.25 L 65.75 2.25 M 65.75 2.25 M 63.75 2.25 L 59.75 2.25 M 59.75 2.25 M 57.75 2.25 L 53.75 2.25 M 53.75 2.25 M 51.75 2.25 L 47.75 2.25 M 47.75 2.25 M 45.75 2.25 L 41.75 2.25 M 41.75 2.25 M 39.75 2.25 L 35.75 2.25 M 35.75 2.25 M 33.75 2.25 L 29.75 2.25 M 29.75 2.25 M 27.75 2.25 L 23.75 2.25 M 23.75 2.25 M 21.75 2.25 L 17.75 2.25 M 17.75 2.25 M 15.75 2.25 L 11.75 2.25 M 11.75 2.25 M 9.75 2.25 L 5.75 2.25 M 5.75 2.25 M 3.75 2.25 L 3 2.25 Z" stroke-miterlimit="10" stroke-width="2" opacity="0"></path></g></g></g></g></g><g transform="scale(1,1) matrix(1,0,0,1,192,140) translate(2,30.5)"><text fill="#000000" stroke="none" font-family="Arial" font-size="12px" font-style="normal" font-weight="normal" text-decoration="none" x="10.5" y="11">Throttle body</text></g><g transform="translate(0,0) matrix(1,0,0,1,360,140)"><g><g transform="translate(0,0) scale(1,0.75)"><g><path fill="#FFFFFF" stroke="none" d="M 0 0 L 100 0 Q 100 0 100 0 L 100 100 Q 100 100 100 100 L 0 100 Q 0 100 0 100 L 0 0 Q 0 0 0 0 Z"></path><g transform="scale(1,1.3333333333333333)"><path fill="none" stroke="none" d="M 0 0 L 100 0 Q 100 0 100 0 L 100 75 Q 100 75 100 75 L 0 75 Q 0 75 0 75 L 0 0 Q 0 0 0 0 Z"></path><path fill="none" stroke="#333333" d="M 0 0 M 0 0 L 100 0 Q 100 0 100 0 L 100 75 Q 100 75 100 75 L 0 75 Q 0 75 0 75 L 0 0 Q 0 0 0 0 Z" stroke-miterlimit="10" stroke-width="2"></path></g></g><g><g transform="scale(1,1.3333333333333333)"><path fill="rgb(0,0,0)" stroke="none" d="M 2 1.5 L 2 72.75 L 97 72.75 L 97 2.25 L 3 2.25 Z" fill-opacity="0" opacity="0"></path><path fill="none" stroke="#3C7626" d="M 2 1.5 M 2 1.5 L 2 5.5 M 2 5.5 M 2 7.5 L 2 11.5 M 2 11.5 M 2 13.5 L 2 17.5 M 2 17.5 M 2 19.5 L 2 23.5 M 2 23.5 M 2 25.5 L 2 29.5 M 2 29.5 M 2 31.5 L 2 35.5 M 2 35.5 M 2 37.5 L 2 41.5 M 2 41.5 M 2 43.5 L 2 47.5 M 2 47.5 M 2 49.5 L 2 53.5 M 2 53.5 M 2 55.5 L 2 59.5 M 2 59.5 M 2 61.5 L 2 65.5 M 2 65.5 M 2 67.5 L 2 71.5 M 2 71.5 M 2.75 72.75 L 6.75 72.75 M 6.75 72.75 M 8.75 72.75 L 12.75 72.75 M 12.75 72.75 M 14.75 72.75 L 18.75 72.75 M 18.75 72.75 M 20.75 72.75 L 24.75 72.75 M 24.75 72.75 M 26.75 72.75 L 30.75 72.75 M 30.75 72.75 M 32.75 72.75 L 36.75 72.75 M 36.75 72.75 M 38.75 72.75 L 42.75 72.75 M 42.75 72.75 M 44.75 72.75 L 48.75 72.75 M 48.75 72.75 M 50.75 72.75 L 54.75 72.75 M 54.75 72.75 M 56.75 72.75 L 60.75 72.75 M 60.75 72.75 M 62.75 72.75 L 66.75 72.75 M 66.75 72.75 M 68.75 72.75 L 72.75 72.75 M 72.75 72.75 M 74.75 72.75 L 78.75 72.75 M 78.75 72.75 M 80.75 72.75 L 84.75 72.75 M 84.75 72.75 M 86.75 72.75 L 90.75 72.75 M 90.75 72.75 M 92.75 72.75 L 96.75 72.75 M 96.75 72.75 M 97 71 L 97 67 M 97 67 M 97 65 L 97 61 M 97 61 M 97 59 L 97 55 M 97 55 M 97 53 L 97 49 M 97 49 M 97 47 L 97 43 M 97 43 M 97 41 L 97 37 M 97 37 M 97 35 L 97 31 M 97 31 M 97 29 L 97 25 M 97 25 M 97 23 L 97 19 M 97 19 M 97 17 L 97 13 M 97 13 M 97 11 L 97 7 M 97 7 M 97 5 L 97 2.25 L 95.75 2.25 M 95.75 2.25 M 93.75 2.25 L 89.75 2.25 M 89.75 2.25 M 87.75 2.25 L 83.75 2.25 M 83.75 2.25 M 81.75 2.25 L 77.75 2.25 M 77.75 2.25 M 75.75 2.25 L 71.75 2.25 M 71.75 2.25 M 69.75 2.25 L 65.75 2.25 M 65.75 2.25 M 63.75 2.25 L 59.75 2.25 M 59.75 2.25 M 57.75 2.25 L 53.75 2.25 M 53.75 2.25 M 51.75 2.25 L 47.75 2.25 M 47.75 2.25 M 45.75 2.25 L 41.75 2.25 M 41.75 2.25 M 39.75 2.25 L 35.75 2.25 M 35.75 2.25 M 33.75 2.25 L 29.75 2.25 M 29.75 2.25 M 27.75 2.25 L 23.75 2.25 M 23.75 2.25 M 21.75 2.25 L 17.75 2.25 M 17.75 2.25 M 15.75 2.25 L 11.75 2.25 M 11.75 2.25 M 9.75 2.25 L 5.75 2.25 M 5.75 2.25 M 3.75 2.25 L 3 2.25 Z" stroke-miterlimit="10" stroke-width="2" opacity="0"></path></g></g></g></g></g><g transform="scale(1,1) matrix(1,0,0,1,362,140) translate(2,23.5)"><text fill="#000000" stroke="none" font-family="Arial" font-size="12px" font-style="normal" font-weight="normal" text-decoration="none" x="11.5" y="11">Combustion </text><text fill="#000000" stroke="none" font-family="Arial" font-size="12px" font-style="normal" font-weight="normal" text-decoration="none" x="22" y="25">chamber</text></g><g transform="translate(0,0) matrix(1,0,0,1,190,20)"><g><g transform="translate(0,0) scale(1,0.75)"><g><path fill="#FFFFFF" stroke="none" d="M 0 0 L 100 0 Q 100 0 100 0 L 100 100 Q 100 100 100 100 L 0 100 Q 0 100 0 100 L 0 0 Q 0 0 0 0 Z"></path><g transform="scale(1,1.3333333333333333)"><path fill="none" stroke="none" d="M 0 0 L 100 0 Q 100 0 100 0 L 100 75 Q 100 75 100 75 L 0 75 Q 0 75 0 75 L 0 0 Q 0 0 0 0 Z"></path><path fill="none" stroke="#333333" d="M 0 0 M 0 0 L 100 0 Q 100 0 100 0 L 100 75 Q 100 75 100 75 L 0 75 Q 0 75 0 75 L 0 0 Q 0 0 0 0 Z" stroke-miterlimit="10" stroke-width="2"></path></g></g><g><g transform="scale(1,1.3333333333333333)"><path fill="rgb(0,0,0)" stroke="none" d="M 2 1.5 L 2 72.75 L 97 72.75 L 97 2.25 L 3 2.25 Z" fill-opacity="0" opacity="0"></path><path fill="none" stroke="#3C7626" d="M 2 1.5 M 2 1.5 L 2 5.5 M 2 5.5 M 2 7.5 L 2 11.5 M 2 11.5 M 2 13.5 L 2 17.5 M 2 17.5 M 2 19.5 L 2 23.5 M 2 23.5 M 2 25.5 L 2 29.5 M 2 29.5 M 2 31.5 L 2 35.5 M 2 35.5 M 2 37.5 L 2 41.5 M 2 41.5 M 2 43.5 L 2 47.5 M 2 47.5 M 2 49.5 L 2 53.5 M 2 53.5 M 2 55.5 L 2 59.5 M 2 59.5 M 2 61.5 L 2 65.5 M 2 65.5 M 2 67.5 L 2 71.5 M 2 71.5 M 2.75 72.75 L 6.75 72.75 M 6.75 72.75 M 8.75 72.75 L 12.75 72.75 M 12.75 72.75 M 14.75 72.75 L 18.75 72.75 M 18.75 72.75 M 20.75 72.75 L 24.75 72.75 M 24.75 72.75 M 26.75 72.75 L 30.75 72.75 M 30.75 72.75 M 32.75 72.75 L 36.75 72.75 M 36.75 72.75 M 38.75 72.75 L 42.75 72.75 M 42.75 72.75 M 44.75 72.75 L 48.75 72.75 M 48.75 72.75 M 50.75 72.75 L 54.75 72.75 M 54.75 72.75 M 56.75 72.75 L 60.75 72.75 M 60.75 72.75 M 62.75 72.75 L 66.75 72.75 M 66.75 72.75 M 68.75 72.75 L 72.75 72.75 M 72.75 72.75 M 74.75 72.75 L 78.75 72.75 M 78.75 72.75 M 80.75 72.75 L 84.75 72.75 M 84.75 72.75 M 86.75 72.75 L 90.75 72.75 M 90.75 72.75 M 92.75 72.75 L 96.75 72.75 M 96.75 72.75 M 97 71 L 97 67 M 97 67 M 97 65 L 97 61 M 97 61 M 97 59 L 97 55 M 97 55 M 97 53 L 97 49 M 97 49 M 97 47 L 97 43 M 97 43 M 97 41 L 97 37 M 97 37 M 97 35 L 97 31 M 97 31 M 97 29 L 97 25 M 97 25 M 97 23 L 97 19 M 97 19 M 97 17 L 97 13 M 97 13 M 97 11 L 97 7 M 97 7 M 97 5 L 97 2.25 L 95.75 2.25 M 95.75 2.25 M 93.75 2.25 L 89.75 2.25 M 89.75 2.25 M 87.75 2.25 L 83.75 2.25 M 83.75 2.25 M 81.75 2.25 L 77.75 2.25 M 77.75 2.25 M 75.75 2.25 L 71.75 2.25 M 71.75 2.25 M 69.75 2.25 L 65.75 2.25 M 65.75 2.25 M 63.75 2.25 L 59.75 2.25 M 59.75 2.25 M 57.75 2.25 L 53.75 2.25 M 53.75 2.25 M 51.75 2.25 L 47.75 2.25 M 47.75 2.25 M 45.75 2.25 L 41.75 2.25 M 41.75 2.25 M 39.75 2.25 L 35.75 2.25 M 35.75 2.25 M 33.75 2.25 L 29.75 2.25 M 29.75 2.25 M 27.75 2.25 L 23.75 2.25 M 23.75 2.25 M 21.75 2.25 L 17.75 2.25 M 17.75 2.25 M 15.75 2.25 L 11.75 2.25 M 11.75 2.25 M 9.75 2.25 L 5.75 2.25 M 5.75 2.25 M 3.75 2.25 L 3 2.25 Z" stroke-miterlimit="10" stroke-width="2" opacity="0"></path></g></g></g></g></g><g transform="scale(1,1) matrix(1,0,0,1,192,20) translate(2,30.5)"><text fill="#000000" stroke="none" font-family="Arial" font-size="12px" font-style="normal" font-weight="normal" text-decoration="none" x="5" y="11">Power steering</text></g><g transform="translate(0,0) matrix(1,0,0,1,530,140)"><g><g transform="translate(0,0) scale(1,0.75)"><g><path fill="#FFFFFF" stroke="none" d="M 0 0 L 100 0 Q 100 0 100 0 L 100 100 Q 100 100 100 100 L 0 100 Q 0 100 0 100 L 0 0 Q 0 0 0 0 Z"></path><g transform="scale(1,1.3333333333333333)"><path fill="none" stroke="none" d="M 0 0 L 100 0 Q 100 0 100 0 L 100 75 Q 100 75 100 75 L 0 75 Q 0 75 0 75 L 0 0 Q 0 0 0 0 Z"></path><path fill="none" stroke="#333333" d="M 0 0 M 0 0 L 100 0 Q 100 0 100 0 L 100 75 Q 100 75 100 75 L 0 75 Q 0 75 0 75 L 0 0 Q 0 0 0 0 Z" stroke-miterlimit="10" stroke-width="2"></path></g></g><g><g transform="scale(1,1.3333333333333333)"><path fill="rgb(0,0,0)" stroke="none" d="M 2 1.5 L 2 72.75 L 97 72.75 L 97 2.25 L 3 2.25 Z" fill-opacity="0" opacity="0"></path><path fill="none" stroke="#3C7626" d="M 2 1.5 M 2 1.5 L 2 5.5 M 2 5.5 M 2 7.5 L 2 11.5 M 2 11.5 M 2 13.5 L 2 17.5 M 2 17.5 M 2 19.5 L 2 23.5 M 2 23.5 M 2 25.5 L 2 29.5 M 2 29.5 M 2 31.5 L 2 35.5 M 2 35.5 M 2 37.5 L 2 41.5 M 2 41.5 M 2 43.5 L 2 47.5 M 2 47.5 M 2 49.5 L 2 53.5 M 2 53.5 M 2 55.5 L 2 59.5 M 2 59.5 M 2 61.5 L 2 65.5 M 2 65.5 M 2 67.5 L 2 71.5 M 2 71.5 M 2.75 72.75 L 6.75 72.75 M 6.75 72.75 M 8.75 72.75 L 12.75 72.75 M 12.75 72.75 M 14.75 72.75 L 18.75 72.75 M 18.75 72.75 M 20.75 72.75 L 24.75 72.75 M 24.75 72.75 M 26.75 72.75 L 30.75 72.75 M 30.75 72.75 M 32.75 72.75 L 36.75 72.75 M 36.75 72.75 M 38.75 72.75 L 42.75 72.75 M 42.75 72.75 M 44.75 72.75 L 48.75 72.75 M 48.75 72.75 M 50.75 72.75 L 54.75 72.75 M 54.75 72.75 M 56.75 72.75 L 60.75 72.75 M 60.75 72.75 M 62.75 72.75 L 66.75 72.75 M 66.75 72.75 M 68.75 72.75 L 72.75 72.75 M 72.75 72.75 M 74.75 72.75 L 78.75 72.75 M 78.75 72.75 M 80.75 72.75 L 84.75 72.75 M 84.75 72.75 M 86.75 72.75 L 90.75 72.75 M 90.75 72.75 M 92.75 72.75 L 96.75 72.75 M 96.75 72.75 M 97 71 L 97 67 M 97 67 M 97 65 L 97 61 M 97 61 M 97 59 L 97 55 M 97 55 M 97 53 L 97 49 M 97 49 M 97 47 L 97 43 M 97 43 M 97 41 L 97 37 M 97 37 M 97 35 L 97 31 M 97 31 M 97 29 L 97 25 M 97 25 M 97 23 L 97 19 M 97 19 M 97 17 L 97 13 M 97 13 M 97 11 L 97 7 M 97 7 M 97 5 L 97 2.25 L 95.75 2.25 M 95.75 2.25 M 93.75 2.25 L 89.75 2.25 M 89.75 2.25 M 87.75 2.25 L 83.75 2.25 M 83.75 2.25 M 81.75 2.25 L 77.75 2.25 M 77.75 2.25 M 75.75 2.25 L 71.75 2.25 M 71.75 2.25 M 69.75 2.25 L 65.75 2.25 M 65.75 2.25 M 63.75 2.25 L 59.75 2.25 M 59.75 2.25 M 57.75 2.25 L 53.75 2.25 M 53.75 2.25 M 51.75 2.25 L 47.75 2.25 M 47.75 2.25 M 45.75 2.25 L 41.75 2.25 M 41.75 2.25 M 39.75 2.25 L 35.75 2.25 M 35.75 2.25 M 33.75 2.25 L 29.75 2.25 M 29.75 2.25 M 27.75 2.25 L 23.75 2.25 M 23.75 2.25 M 21.75 2.25 L 17.75 2.25 M 17.75 2.25 M 15.75 2.25 L 11.75 2.25 M 11.75 2.25 M 9.75 2.25 L 5.75 2.25 M 5.75 2.25 M 3.75 2.25 L 3 2.25 Z" stroke-miterlimit="10" stroke-width="2" opacity="0"></path></g></g></g></g></g><g transform="scale(1,1) matrix(1,0,0,1,532,140) translate(2,30.5)"><text fill="#000000" stroke="none" font-family="Arial" font-size="12px" font-style="normal" font-weight="normal" text-decoration="none" x="9.5" y="11">Transmission</text></g><g transform="translate(0,0) matrix(1,0,0,1,687.8108891324555,102.5)"><g><g transform="translate(0,0) scale(1,0.75)"><g><path fill="#FFFFFF" stroke="none" d="M 0 0 L 100 0 Q 100 0 100 0 L 100 100 Q 100 100 100 100 L 0 100 Q 0 100 0 100 L 0 0 Q 0 0 0 0 Z"></path><g transform="scale(1,1.3333333333333333)"><path fill="none" stroke="none" d="M 0 0 L 100 0 Q 100 0 100 0 L 100 75 Q 100 75 100 75 L 0 75 Q 0 75 0 75 L 0 0 Q 0 0 0 0 Z"></path><path fill="none" stroke="#333333" d="M 0 0 M 0 0 L 100 0 Q 100 0 100 0 L 100 75 Q 100 75 100 75 L 0 75 Q 0 75 0 75 L 0 0 Q 0 0 0 0 Z" stroke-miterlimit="10" stroke-width="2"></path></g></g><g><g transform="scale(1,1.3333333333333333)"><path fill="rgb(0,0,0)" stroke="none" d="M 2 1.5 L 2 72.75 L 97 72.75 L 97 2.25 L 3 2.25 Z" fill-opacity="0" opacity="0"></path><path fill="none" stroke="#3C7626" d="M 2 1.5 M 2 1.5 L 2 5.5 M 2 5.5 M 2 7.5 L 2 11.5 M 2 11.5 M 2 13.5 L 2 17.5 M 2 17.5 M 2 19.5 L 2 23.5 M 2 23.5 M 2 25.5 L 2 29.5 M 2 29.5 M 2 31.5 L 2 35.5 M 2 35.5 M 2 37.5 L 2 41.5 M 2 41.5 M 2 43.5 L 2 47.5 M 2 47.5 M 2 49.5 L 2 53.5 M 2 53.5 M 2 55.5 L 2 59.5 M 2 59.5 M 2 61.5 L 2 65.5 M 2 65.5 M 2 67.5 L 2 71.5 M 2 71.5 M 2.75 72.75 L 6.75 72.75 M 6.75 72.75 M 8.75 72.75 L 12.75 72.75 M 12.75 72.75 M 14.75 72.75 L 18.75 72.75 M 18.75 72.75 M 20.75 72.75 L 24.75 72.75 M 24.75 72.75 M 26.75 72.75 L 30.75 72.75 M 30.75 72.75 M 32.75 72.75 L 36.75 72.75 M 36.75 72.75 M 38.75 72.75 L 42.75 72.75 M 42.75 72.75 M 44.75 72.75 L 48.75 72.75 M 48.75 72.75 M 50.75 72.75 L 54.75 72.75 M 54.75 72.75 M 56.75 72.75 L 60.75 72.75 M 60.75 72.75 M 62.75 72.75 L 66.75 72.75 M 66.75 72.75 M 68.75 72.75 L 72.75 72.75 M 72.75 72.75 M 74.75 72.75 L 78.75 72.75 M 78.75 72.75 M 80.75 72.75 L 84.75 72.75 M 84.75 72.75 M 86.75 72.75 L 90.75 72.75 M 90.75 72.75 M 92.75 72.75 L 96.75 72.75 M 96.75 72.75 M 97 71 L 97 67 M 97 67 M 97 65 L 97 61 M 97 61 M 97 59 L 97 55 M 97 55 M 97 53 L 97 49 M 97 49 M 97 47 L 97 43 M 97 43 M 97 41 L 97 37 M 97 37 M 97 35 L 97 31 M 97 31 M 97 29 L 97 25 M 97 25 M 97 23 L 97 19 M 97 19 M 97 17 L 97 13 M 97 13 M 97 11 L 97 7 M 97 7 M 97 5 L 97 2.25 L 95.75 2.25 M 95.75 2.25 M 93.75 2.25 L 89.75 2.25 M 89.75 2.25 M 87.75 2.25 L 83.75 2.25 M 83.75 2.25 M 81.75 2.25 L 77.75 2.25 M 77.75 2.25 M 75.75 2.25 L 71.75 2.25 M 71.75 2.25 M 69.75 2.25 L 65.75 2.25 M 65.75 2.25 M 63.75 2.25 L 59.75 2.25 M 59.75 2.25 M 57.75 2.25 L 53.75 2.25 M 53.75 2.25 M 51.75 2.25 L 47.75 2.25 M 47.75 2.25 M 45.75 2.25 L 41.75 2.25 M 41.75 2.25 M 39.75 2.25 L 35.75 2.25 M 35.75 2.25 M 33.75 2.25 L 29.75 2.25 M 29.75 2.25 M 27.75 2.25 L 23.75 2.25 M 23.75 2.25 M 21.75 2.25 L 17.75 2.25 M 17.75 2.25 M 15.75 2.25 L 11.75 2.25 M 11.75 2.25 M 9.75 2.25 L 5.75 2.25 M 5.75 2.25 M 3.75 2.25 L 3 2.25 Z" stroke-miterlimit="10" stroke-width="2" opacity="0"></path></g></g></g></g></g><g transform="scale(1,1) matrix(1,0,0,1,689.8108891324555,102.5) translate(2,30.5)"><text fill="#000000" stroke="none" font-family="Arial" font-size="12px" font-style="normal" font-weight="normal" text-decoration="none" x="25.5" y="11">Wheels</text></g><g transform="translate(0,0) matrix(1,0,0,1,290,32.5)"><g><g transform="translate(0,0) scale(0.7,0.5)"><g><g transform="scale(1.4285714285714286,2)"><path fill="#FFFFFF" stroke="none" d="M 0 15 L 44.99999999999999 15 L 44.99999999999999 0 L 70 25 L 44.99999999999999 50 L 44.99999999999999 35 L 0 35 L 0 15 Z"></path><path fill="none" stroke="#333333" d="M 0 15 M 0 15 L 44.99999999999999 15 L 44.99999999999999 0 L 70 25 L 44.99999999999999 50 L 44.99999999999999 35 L 0 35 L 0 15 Z" stroke-miterlimit="10" stroke-width="2"></path></g></g></g></g></g><g transform="translate(0,0) matrix(1,0,0,1,460,152.5)"><g><g transform="translate(0,0) scale(0.7,0.5)"><g><g transform="scale(1.4285714285714286,2)"><path fill="#FFFFFF" stroke="none" d="M 0 15 L 44.99999999999999 15 L 44.99999999999999 0 L 70 25 L 44.99999999999999 50 L 44.99999999999999 35 L 0 35 L 0 15 Z"></path><path fill="none" stroke="#333333" d="M 0 15 M 0 15 L 44.99999999999999 15 L 44.99999999999999 0 L 70 25 L 44.99999999999999 50 L 44.99999999999999 35 L 0 35 L 0 15 Z" stroke-miterlimit="10" stroke-width="2"></path></g></g></g></g></g><g transform="translate(0,0) matrix(1,0,0,1,290,152.5)"><g><g transform="translate(0,0) scale(0.7,0.5)"><g><g transform="scale(1.4285714285714286,2)"><path fill="#FFFFFF" stroke="none" d="M 0 15 L 44.99999999999999 15 L 44.99999999999999 0 L 70 25 L 44.99999999999999 50 L 44.99999999999999 35 L 0 35 L 0 15 Z"></path><path fill="none" stroke="#333333" d="M 0 15 M 0 15 L 44.99999999999999 15 L 44.99999999999999 0 L 70 25 L 44.99999999999999 50 L 44.99999999999999 35 L 0 35 L 0 15 Z" stroke-miterlimit="10" stroke-width="2"></path></g></g></g></g></g><g transform="translate(0,0) matrix(1,0,0,1,120,152.5)"><g><g transform="translate(0,0) scale(0.7,0.5)"><g><g transform="scale(1.4285714285714286,2)"><path fill="#FFFFFF" stroke="none" d="M 0 15 L 44.99999999999999 15 L 44.99999999999999 0 L 70 25 L 44.99999999999999 50 L 44.99999999999999 35 L 0 35 L 0 15 Z"></path><path fill="none" stroke="#333333" d="M 0 15 M 0 15 L 44.99999999999999 15 L 44.99999999999999 0 L 70 25 L 44.99999999999999 50 L 44.99999999999999 35 L 0 35 L 0 15 Z" stroke-miterlimit="10" stroke-width="2"></path></g></g></g></g></g><g transform="translate(0,0) matrix(1,0,0,1,325,235)"><g><g transform="translate(0,0) scale(1,0.75)"><g><path fill="#b6d7a8" stroke="none" d="M 0 0 L 100 0 Q 100 0 100 0 L 100 100 Q 100 100 100 100 L 0 100 Q 0 100 0 100 L 0 0 Q 0 0 0 0 Z"></path><g transform="scale(1,1.3333333333333333)"><path fill="none" stroke="none" d="M 0 0 L 100 0 Q 100 0 100 0 L 100 75 Q 100 75 100 75 L 0 75 Q 0 75 0 75 L 0 0 Q 0 0 0 0 Z"></path><path fill="none" stroke="#333333" d="M 0 0 M 0 0 L 100 0 Q 100 0 100 0 L 100 75 Q 100 75 100 75 L 0 75 Q 0 75 0 75 L 0 0 Q 0 0 0 0 Z" stroke-miterlimit="10" stroke-width="2"></path></g></g><g><g transform="scale(1,1.3333333333333333)"><path fill="rgb(0,0,0)" stroke="none" d="M 2 1.5 L 2 72.75 L 97 72.75 L 97 2.25 L 3 2.25 Z" fill-opacity="0" opacity="0"></path><path fill="none" stroke="#3C7626" d="M 2 1.5 M 2 1.5 L 2 5.5 M 2 5.5 M 2 7.5 L 2 11.5 M 2 11.5 M 2 13.5 L 2 17.5 M 2 17.5 M 2 19.5 L 2 23.5 M 2 23.5 M 2 25.5 L 2 29.5 M 2 29.5 M 2 31.5 L 2 35.5 M 2 35.5 M 2 37.5 L 2 41.5 M 2 41.5 M 2 43.5 L 2 47.5 M 2 47.5 M 2 49.5 L 2 53.5 M 2 53.5 M 2 55.5 L 2 59.5 M 2 59.5 M 2 61.5 L 2 65.5 M 2 65.5 M 2 67.5 L 2 71.5 M 2 71.5 M 2.75 72.75 L 6.75 72.75 M 6.75 72.75 M 8.75 72.75 L 12.75 72.75 M 12.75 72.75 M 14.75 72.75 L 18.75 72.75 M 18.75 72.75 M 20.75 72.75 L 24.75 72.75 M 24.75 72.75 M 26.75 72.75 L 30.75 72.75 M 30.75 72.75 M 32.75 72.75 L 36.75 72.75 M 36.75 72.75 M 38.75 72.75 L 42.75 72.75 M 42.75 72.75 M 44.75 72.75 L 48.75 72.75 M 48.75 72.75 M 50.75 72.75 L 54.75 72.75 M 54.75 72.75 M 56.75 72.75 L 60.75 72.75 M 60.75 72.75 M 62.75 72.75 L 66.75 72.75 M 66.75 72.75 M 68.75 72.75 L 72.75 72.75 M 72.75 72.75 M 74.75 72.75 L 78.75 72.75 M 78.75 72.75 M 80.75 72.75 L 84.75 72.75 M 84.75 72.75 M 86.75 72.75 L 90.75 72.75 M 90.75 72.75 M 92.75 72.75 L 96.75 72.75 M 96.75 72.75 M 97 71 L 97 67 M 97 67 M 97 65 L 97 61 M 97 61 M 97 59 L 97 55 M 97 55 M 97 53 L 97 49 M 97 49 M 97 47 L 97 43 M 97 43 M 97 41 L 97 37 M 97 37 M 97 35 L 97 31 M 97 31 M 97 29 L 97 25 M 97 25 M 97 23 L 97 19 M 97 19 M 97 17 L 97 13 M 97 13 M 97 11 L 97 7 M 97 7 M 97 5 L 97 2.25 L 95.75 2.25 M 95.75 2.25 M 93.75 2.25 L 89.75 2.25 M 89.75 2.25 M 87.75 2.25 L 83.75 2.25 M 83.75 2.25 M 81.75 2.25 L 77.75 2.25 M 77.75 2.25 M 75.75 2.25 L 71.75 2.25 M 71.75 2.25 M 69.75 2.25 L 65.75 2.25 M 65.75 2.25 M 63.75 2.25 L 59.75 2.25 M 59.75 2.25 M 57.75 2.25 L 53.75 2.25 M 53.75 2.25 M 51.75 2.25 L 47.75 2.25 M 47.75 2.25 M 45.75 2.25 L 41.75 2.25 M 41.75 2.25 M 39.75 2.25 L 35.75 2.25 M 35.75 2.25 M 33.75 2.25 L 29.75 2.25 M 29.75 2.25 M 27.75 2.25 L 23.75 2.25 M 23.75 2.25 M 21.75 2.25 L 17.75 2.25 M 17.75 2.25 M 15.75 2.25 L 11.75 2.25 M 11.75 2.25 M 9.75 2.25 L 5.75 2.25 M 5.75 2.25 M 3.75 2.25 L 3 2.25 Z" stroke-miterlimit="10" stroke-width="2" opacity="0"></path></g></g></g></g></g><g transform="scale(1,1) matrix(1,0,0,1,327,235) translate(2,30.5)"><text fill="#000000" stroke="none" font-family="Arial" font-size="12px" font-style="normal" font-weight="normal" text-decoration="none" x="27" y="11">Brakes</text></g></g></svg>