<svg version="1.1" xmlns="http://www.w3.org/2000/svg" xmlns:xlink="http://www.w3.org/1999/xlink" width="1007.5" height="710"><defs></defs><g transform="translate(0,0)"><g><rect fill="#FFFFFF" stroke="none" x="0" y="0" width="1007.5" height="710"></rect></g><g transform="translate(0,0) matrix(1,0,0,1,180,141.25)"><g><g transform="translate(0,0) scale(1,0.75)"><g><path fill="none" stroke="none" d="M 10 0 L 90 0 Q 100 0 100 10 L 100 90 Q 100 100 90 100 L 10 100 Q 0 100 0 90 L 0 10 Q 0 0 10 0 Z"></path><g transform="scale(1,1.3333333333333333)"><path fill="#b6d7a8" stroke="none" d="M 10 0 L 90 0 Q 100 0 100 10 L 100 65 Q 100 75 90 75 L 10 75 Q 0 75 0 65 L 0 10 Q 0 0 10 0 Z"></path><path fill="none" stroke="#0B599F" d="M 10 0 M 10 0 L 90 0 Q 100 0 100 10 L 100 65 Q 100 75 90 75 L 10 75 Q 0 75 0 65 L 0 10 Q 0 0 10 0 Z" stroke-miterlimit="10" stroke-width="2"></path></g></g></g></g></g><g transform="scale(1,1) matrix(1,0,0,1,182,141.25) translate(2,27.5)"><text fill="rgb(8, 35, 63)" stroke="none" font-family="Arial" font-size="18px" font-style="normal" font-weight="normal" text-decoration="none" x="9.5" y="15">ELT1010</text></g><g transform="translate(0,0) matrix(1,0,0,1,180,260)"><g><g transform="translate(0,0) scale(1,0.75)"><g><path fill="none" stroke="none" d="M 10 0 L 90 0 Q 100 0 100 10 L 100 90 Q 100 100 90 100 L 10 100 Q 0 100 0 90 L 0 10 Q 0 0 10 0 Z"></path><g transform="scale(1,1.3333333333333333)"><path fill="#b6d7a8" stroke="none" d="M 10 0 L 90 0 Q 100 0 100 10 L 100 65 Q 100 75 90 75 L 10 75 Q 0 75 0 65 L 0 10 Q 0 0 10 0 Z"></path><path fill="none" stroke="#0B599F" d="M 10 0 M 10 0 L 90 0 Q 100 0 100 10 L 100 65 Q 100 75 90 75 L 10 75 Q 0 75 0 65 L 0 10 Q 0 0 10 0 Z" stroke-miterlimit="10" stroke-width="2"></path></g></g></g></g></g><g transform="scale(1,1) matrix(1,0,0,1,182,260) translate(2,27.5)"><text fill="rgb(8, 35, 63)" stroke="none" font-family="Arial" font-size="18px" font-style="normal" font-weight="normal" text-decoration="none" x="9.5" y="15">ELT1130</text></g><g transform="translate(0,0) matrix(1,0,0,1,180,350)"><g><g transform="translate(0,0) scale(1,0.75)"><g><path fill="none" stroke="none" d="M 10 0 L 90 0 Q 100 0 100 10 L 100 90 Q 100 100 90 100 L 10 100 Q 0 100 0 90 L 0 10 Q 0 0 10 0 Z"></path><g transform="scale(1,1.3333333333333333)"><path fill="#b6d7a8" stroke="none" d="M 10 0 L 90 0 Q 100 0 100 10 L 100 65 Q 100 75 90 75 L 10 75 Q 0 75 0 65 L 0 10 Q 0 0 10 0 Z"></path><path fill="none" stroke="#0B599F" d="M 10 0 M 10 0 L 90 0 Q 100 0 100 10 L 100 65 Q 100 75 90 75 L 10 75 Q 0 75 0 65 L 0 10 Q 0 0 10 0 Z" stroke-miterlimit="10" stroke-width="2"></path></g></g></g></g></g><g transform="scale(1,1) matrix(1,0,0,1,182,350) translate(2,27.5)"><text fill="rgb(8, 35, 63)" stroke="none" font-family="Arial" font-size="18px" font-style="normal" font-weight="normal" text-decoration="none" x="9.5" y="15">ELT1910</text></g><g transform="translate(0,0) matrix(1,0,0,1,330,505)"><g><g transform="translate(0,0) scale(1,0.75)"><g><path fill="none" stroke="none" d="M 10 0 L 90 0 Q 100 0 100 10 L 100 90 Q 100 100 90 100 L 10 100 Q 0 100 0 90 L 0 10 Q 0 0 10 0 Z"></path><g transform="scale(1,1.3333333333333333)"><path fill="#DDE6F1" stroke="none" d="M 10 0 L 90 0 Q 100 0 100 10 L 100 65 Q 100 75 90 75 L 10 75 Q 0 75 0 65 L 0 10 Q 0 0 10 0 Z"></path><path fill="none" stroke="#0B599F" d="M 10 0 M 10 0 L 90 0 Q 100 0 100 10 L 100 65 Q 100 75 90 75 L 10 75 Q 0 75 0 65 L 0 10 Q 0 0 10 0 Z" stroke-miterlimit="10" stroke-width="2"></path></g></g></g></g></g><g transform="scale(1,1) matrix(1,0,0,1,332,505) translate(2,27.5)"><text fill="rgb(8, 35, 63)" stroke="none" font-family="Arial" font-size="18px" font-style="normal" font-weight="normal" text-decoration="none" x="7.5" y="15">CSE1110</text></g><g transform="translate(0,0) matrix(1,0,0,1,330,97.5)"><g><g transform="translate(0,0) scale(1,0.75)"><g><path fill="none" stroke="none" d="M 10 0 L 90 0 Q 100 0 100 10 L 100 90 Q 100 100 90 100 L 10 100 Q 0 100 0 90 L 0 10 Q 0 0 10 0 Z"></path><g transform="scale(1,1.3333333333333333)"><path fill="#DDE6F1" stroke="none" d="M 10 0 L 90 0 Q 100 0 100 10 L 100 65 Q 100 75 90 75 L 10 75 Q 0 75 0 65 L 0 10 Q 0 0 10 0 Z"></path><path fill="none" stroke="#0B599F" d="M 10 0 M 10 0 L 90 0 Q 100 0 100 10 L 100 65 Q 100 75 90 75 L 10 75 Q 0 75 0 65 L 0 10 Q 0 0 10 0 Z" stroke-miterlimit="10" stroke-width="2"></path></g></g></g></g></g><g transform="scale(1,1) matrix(1,0,0,1,332,97.5) translate(2,27.5)"><text fill="rgb(8, 35, 63)" stroke="none" font-family="Arial" font-size="18px" font-style="normal" font-weight="normal" text-decoration="none" x="9.5" y="15">ELT1080</text></g><g transform="translate(0,0) matrix(1,0,0,1,330,185)"><g><g transform="translate(0,0) scale(1,0.75)"><g><path fill="none" stroke="none" d="M 10 0 L 90 0 Q 100 0 100 10 L 100 90 Q 100 100 90 100 L 10 100 Q 0 100 0 90 L 0 10 Q 0 0 10 0 Z"></path><g transform="scale(1,1.3333333333333333)"><path fill="#DDE6F1" stroke="none" d="M 10 0 L 90 0 Q 100 0 100 10 L 100 65 Q 100 75 90 75 L 10 75 Q 0 75 0 65 L 0 10 Q 0 0 10 0 Z"></path><path fill="none" stroke="#0B599F" d="M 10 0 M 10 0 L 90 0 Q 100 0 100 10 L 100 65 Q 100 75 90 75 L 10 75 Q 0 75 0 65 L 0 10 Q 0 0 10 0 Z" stroke-miterlimit="10" stroke-width="2"></path></g></g></g></g></g><g transform="scale(1,1) matrix(1,0,0,1,332,185) translate(2,27.5)"><text fill="rgb(8, 35, 63)" stroke="none" font-family="Arial" font-size="18px" font-style="normal" font-weight="normal" text-decoration="none" x="9.5" y="15">ELT1140</text></g><g transform="matrix(1,0,0,1,275.5,130.5)"><g transform="translate(0,0)"><g transform="translate(-280,-177.25) translate(4.5,46.75) matrix(1,0,0,1,0,0)"><g><path fill="none" stroke="#0B599F" d="M 280 178.75 L 330 135" stroke-miterlimit="10" stroke-width="2"></path></g></g></g></g><g transform="matrix(1,0,0,1,275.5,174.25)"><g transform="translate(0,0)"><g transform="translate(-277,-182.25) translate(1.5,8) matrix(1,0,0,1,0,0)"><g><path fill="none" stroke="#0B599F" d="M 280 178.75 L 330 222.5" stroke-miterlimit="10" stroke-width="2"></path></g></g></g></g><g transform="translate(0,0) matrix(1,0,0,1,480,460)"><g><g transform="translate(0,0) scale(1,0.75)"><g><path fill="none" stroke="none" d="M 10 0 L 90 0 Q 100 0 100 10 L 100 90 Q 100 100 90 100 L 10 100 Q 0 100 0 90 L 0 10 Q 0 0 10 0 Z"></path><g transform="scale(1,1.3333333333333333)"><path fill="#DDE6F1" stroke="none" d="M 10 0 L 90 0 Q 100 0 100 10 L 100 65 Q 100 75 90 75 L 10 75 Q 0 75 0 65 L 0 10 Q 0 0 10 0 Z"></path><path fill="none" stroke="#0B599F" d="M 10 0 M 10 0 L 90 0 Q 100 0 100 10 L 100 65 Q 100 75 90 75 L 10 75 Q 0 75 0 65 L 0 10 Q 0 0 10 0 Z" stroke-miterlimit="10" stroke-width="2"></path></g></g></g></g></g><g transform="scale(1,1) matrix(1,0,0,1,482,460) translate(2,27.5)"><text fill="rgb(8, 35, 63)" stroke="none" font-family="Arial" font-size="18px" font-style="normal" font-weight="normal" text-decoration="none" x="7.5" y="15">CSE1120</text></g><g transform="translate(0,0) matrix(1,0,0,1,480,550)"><g><g transform="translate(0,0) scale(1,0.75)"><g><path fill="none" stroke="none" d="M 10 0 L 90 0 Q 100 0 100 10 L 100 90 Q 100 100 90 100 L 10 100 Q 0 100 0 90 L 0 10 Q 0 0 10 0 Z"></path><g transform="scale(1,1.3333333333333333)"><path fill="#DDE6F1" stroke="none" d="M 10 0 L 90 0 Q 100 0 100 10 L 100 65 Q 100 75 90 75 L 10 75 Q 0 75 0 65 L 0 10 Q 0 0 10 0 Z"></path><path fill="none" stroke="#20124d" d="M 10 0 M 10 0 L 90 0 Q 100 0 100 10 L 100 65 Q 100 75 90 75 L 10 75 Q 0 75 0 65 L 0 10 Q 0 0 10 0 Z" stroke-miterlimit="10" stroke-width="2"></path></g></g></g></g></g><g transform="scale(1,1) matrix(1,0,0,1,482,550) translate(2,27.5)"><text fill="rgb(8, 35, 63)" stroke="none" font-family="Arial" font-size="18px" font-style="normal" font-weight="normal" text-decoration="none" x="7.5" y="15">CSE1240</text></g><g transform="translate(0,0) matrix(1,0,0,1,180,505)"><g><g transform="translate(0,0) scale(1,0.75)"><g><path fill="none" stroke="none" d="M 10 0 L 90 0 Q 100 0 100 10 L 100 90 Q 100 100 90 100 L 10 100 Q 0 100 0 90 L 0 10 Q 0 0 10 0 Z"></path><g transform="scale(1,1.3333333333333333)"><path fill="#b6d7a8" stroke="none" d="M 10 0 L 90 0 Q 100 0 100 10 L 100 65 Q 100 75 90 75 L 10 75 Q 0 75 0 65 L 0 10 Q 0 0 10 0 Z"></path><path fill="none" stroke="#20124d" d="M 10 0 M 10 0 L 90 0 Q 100 0 100 10 L 100 65 Q 100 75 90 75 L 10 75 Q 0 75 0 65 L 0 10 Q 0 0 10 0 Z" stroke-miterlimit="10" stroke-width="2"></path></g></g></g></g></g><g transform="scale(1,1) matrix(1,0,0,1,182,505) translate(2,27.5)"><text fill="rgb(8, 35, 63)" stroke="none" font-family="Arial" font-size="18px" font-style="normal" font-weight="normal" text-decoration="none" x="7.5" y="15">CSE1010</text></g><g transform="translate(0,0) matrix(1,0,0,1,480,60)"><g><g transform="translate(0,0) scale(1,0.75)"><g><path fill="none" stroke="none" d="M 10 0 L 90 0 Q 100 0 100 10 L 100 90 Q 100 100 90 100 L 10 100 Q 0 100 0 90 L 0 10 Q 0 0 10 0 Z"></path><g transform="scale(1,1.3333333333333333)"><path fill="#DDE6F1" stroke="none" d="M 10 0 L 90 0 Q 100 0 100 10 L 100 65 Q 100 75 90 75 L 10 75 Q 0 75 0 65 L 0 10 Q 0 0 10 0 Z"></path><path fill="none" stroke="#20124d" d="M 10 0 M 10 0 L 90 0 Q 100 0 100 10 L 100 65 Q 100 75 90 75 L 10 75 Q 0 75 0 65 L 0 10 Q 0 0 10 0 Z" stroke-miterlimit="10" stroke-width="2"></path></g></g></g></g></g><g transform="scale(1,1) matrix(1,0,0,1,482,60) translate(2,27.5)"><text fill="rgb(8, 35, 63)" stroke="none" font-family="Arial" font-size="18px" font-style="normal" font-weight="normal" text-decoration="none" x="9.5" y="15">ELT2080</text></g><g transform="matrix(1,0,0,1,425.5,93)"><g transform="translate(0,0)"><g transform="translate(-430,-135.5) translate(4.5,42.5) matrix(1,0,0,1,0,0)"><g><path fill="none" stroke="#0B599F" d="M 430 135 L 480 97.5" stroke-miterlimit="10" stroke-width="2"></path></g></g></g></g><g transform="translate(0,0) matrix(1,0,0,1,480,141.25)"><g><g transform="translate(0,0) scale(1,0.75)"><g><path fill="none" stroke="none" d="M 10 0 L 90 0 Q 100 0 100 10 L 100 90 Q 100 100 90 100 L 10 100 Q 0 100 0 90 L 0 10 Q 0 0 10 0 Z"></path><g transform="scale(1,1.3333333333333333)"><path fill="#DDE6F1" stroke="none" d="M 10 0 L 90 0 Q 100 0 100 10 L 100 65 Q 100 75 90 75 L 10 75 Q 0 75 0 65 L 0 10 Q 0 0 10 0 Z"></path><path fill="none" stroke="#20124d" d="M 10 0 M 10 0 L 90 0 Q 100 0 100 10 L 100 65 Q 100 75 90 75 L 10 75 Q 0 75 0 65 L 0 10 Q 0 0 10 0 Z" stroke-miterlimit="10" stroke-width="2"></path></g></g></g></g></g><g transform="scale(1,1) matrix(1,0,0,1,482,141.25) translate(2,27.5)"><text fill="rgb(8, 35, 63)" stroke="none" font-family="Arial" font-size="18px" font-style="normal" font-weight="normal" text-decoration="none" x="9.5" y="15">ELT2130</text></g><g transform="matrix(1,0,0,1,275.5,174.25)"><g transform="translate(0,0)"><g transform="translate(-480,-184) translate(204.5,9.75) matrix(1,0,0,1,0,0)"><g><path fill="none" stroke="#0B599F" d="M 480 178.75 L 280 178.75" stroke-miterlimit="10" stroke-width="2"></path></g></g></g></g><g transform="translate(0,0) matrix(1,0,0,1,480,260)"><g><g transform="translate(0,0) scale(1,0.75)"><g><path fill="none" stroke="none" d="M 10 0 L 90 0 Q 100 0 100 10 L 100 90 Q 100 100 90 100 L 10 100 Q 0 100 0 90 L 0 10 Q 0 0 10 0 Z"></path><g transform="scale(1,1.3333333333333333)"><path fill="#DDE6F1" stroke="none" d="M 10 0 L 90 0 Q 100 0 100 10 L 100 65 Q 100 75 90 75 L 10 75 Q 0 75 0 65 L 0 10 Q 0 0 10 0 Z"></path><path fill="none" stroke="#20124d" d="M 10 0 M 10 0 L 90 0 Q 100 0 100 10 L 100 65 Q 100 75 90 75 L 10 75 Q 0 75 0 65 L 0 10 Q 0 0 10 0 Z" stroke-miterlimit="10" stroke-width="2"></path></g></g></g></g></g><g transform="scale(1,1) matrix(1,0,0,1,482,260) translate(2,27.5)"><text fill="rgb(8, 35, 63)" stroke="none" font-family="Arial" font-size="18px" font-style="normal" font-weight="normal" text-decoration="none" x="9.5" y="15">ELT2140</text></g><g transform="matrix(1,0,0,1,275.5,293)"><g transform="translate(0,0)"><g transform="translate(-284,-298) translate(8.5,5) matrix(1,0,0,1,0,0)"><g><path fill="none" stroke="#0B599F" d="M 280 297.5 L 480 297.5" stroke-miterlimit="10" stroke-width="2"></path></g></g></g></g><g transform="matrix(1,0,0,1,425.5,218)"><g transform="translate(0,0)"><g transform="translate(-432,-225) translate(6.5,7) matrix(1,0,0,1,0,0)"><g><path fill="none" stroke="#0B599F" d="M 430 222.5 L 480 297.5" stroke-miterlimit="10" stroke-width="2"></path></g></g></g></g><g transform="translate(0,0) matrix(1,0,0,1,620,60)"><g><g transform="translate(0,0) scale(1,0.75)"><g><path fill="none" stroke="none" d="M 10 0 L 90 0 Q 100 0 100 10 L 100 90 Q 100 100 90 100 L 10 100 Q 0 100 0 90 L 0 10 Q 0 0 10 0 Z"></path><g transform="scale(1,1.3333333333333333)"><path fill="#DDE6F1" stroke="none" d="M 10 0 L 90 0 Q 100 0 100 10 L 100 65 Q 100 75 90 75 L 10 75 Q 0 75 0 65 L 0 10 Q 0 0 10 0 Z"></path><path fill="none" stroke="#20124d" d="M 10 0 M 10 0 L 90 0 Q 100 0 100 10 L 100 65 Q 100 75 90 75 L 10 75 Q 0 75 0 65 L 0 10 Q 0 0 10 0 Z" stroke-miterlimit="10" stroke-width="2"></path></g></g></g></g></g><g transform="scale(1,1) matrix(1,0,0,1,622,60) translate(2,27.5)"><text fill="rgb(8, 35, 63)" stroke="none" font-family="Arial" font-size="18px" font-style="normal" font-weight="normal" text-decoration="none" x="9.5" y="15">ELT2180</text></g><g transform="translate(0,0) matrix(1,0,0,1,480,350)"><g><g transform="translate(0,0) scale(1,0.75)"><g><path fill="none" stroke="none" d="M 10 0 L 90 0 Q 100 0 100 10 L 100 90 Q 100 100 90 100 L 10 100 Q 0 100 0 90 L 0 10 Q 0 0 10 0 Z"></path><g transform="scale(1,1.3333333333333333)"><path fill="#DDE6F1" stroke="none" d="M 10 0 L 90 0 Q 100 0 100 10 L 100 65 Q 100 75 90 75 L 10 75 Q 0 75 0 65 L 0 10 Q 0 0 10 0 Z"></path><path fill="none" stroke="#20124d" d="M 10 0 M 10 0 L 90 0 Q 100 0 100 10 L 100 65 Q 100 75 90 75 L 10 75 Q 0 75 0 65 L 0 10 Q 0 0 10 0 Z" stroke-miterlimit="10" stroke-width="2"></path></g></g></g></g></g><g transform="scale(1,1) matrix(1,0,0,1,482,350) translate(2,27.5)"><text fill="rgb(8, 35, 63)" stroke="none" font-family="Arial" font-size="18px" font-style="normal" font-weight="normal" text-decoration="none" x="9.5" y="15">ELT2910</text></g><g transform="matrix(1,0,0,1,425.5,493)"><g transform="translate(0,0)"><g transform="translate(-419,-539) translate(-6.5,46) matrix(1,0,0,1,0,0)"><g><path fill="none" stroke="#0B599F" d="M 430 542.5 L 480 497.5" stroke-miterlimit="10" stroke-width="2"></path></g></g></g></g><g transform="matrix(1,0,0,1,425.5,538)"><g transform="translate(0,0)"><g transform="translate(-469,-586) translate(43.5,48) matrix(1,0,0,1,0,0)"><g><path fill="none" stroke="#0B599F" d="M 480 587.5 L 430 542.5" stroke-miterlimit="10" stroke-width="2"></path></g></g></g></g><g transform="matrix(1,0,0,1,275.5,538)"><g transform="translate(0,0)"><g transform="translate(-283,-539.25) translate(7.5,1.25) matrix(1,0,0,1,0,0)"><g><path fill="none" stroke="#660000" d="M 280 542.5 L 330 542.5" stroke-miterlimit="10" stroke-width="2"></path></g></g></g></g><g transform="matrix(1,0,0,1,275.5,383)"><g transform="translate(0,0)"><g transform="translate(-282,-385.25) translate(6.5,2.25) matrix(1,0,0,1,0,0)"><g><path fill="none" stroke="#660000" d="M 280 387.5 L 480 387.5" stroke-miterlimit="10" stroke-width="2"></path></g></g></g></g><g transform="matrix(1,0,0,1,575.5,93)"><g transform="translate(0,0)"><g transform="translate(-617,-93) translate(41.5,0) matrix(1,0,0,1,0,0)"><g><path fill="none" stroke="#660000" d="M 620 97.5 L 580 97.5" stroke-miterlimit="10" stroke-width="2"></path></g></g></g></g><g transform="scale(1,1) matrix(1,0,0,1,748,262) translate(2,0)"><text fill="rgb(8, 35, 63)" stroke="none" font-family="Arial" font-size="18px" font-style="normal" font-weight="normal" text-decoration="none" x="57.5" y="15">Legend</text></g><g transform="translate(0,0) matrix(1,0,0,1,720,297.5)"><g><g transform="translate(0,0) scale(1,0.75)"><g><path fill="none" stroke="none" d="M 10 0 L 90 0 Q 100 0 100 10 L 100 90 Q 100 100 90 100 L 10 100 Q 0 100 0 90 L 0 10 Q 0 0 10 0 Z"></path><g transform="scale(1,1.3333333333333333)"><path fill="#DDE6F1" stroke="none" d="M 10 0 L 90 0 Q 100 0 100 10 L 100 65 Q 100 75 90 75 L 10 75 Q 0 75 0 65 L 0 10 Q 0 0 10 0 Z"></path><path fill="none" stroke="#0B599F" d="M 10 0 M 10 0 L 90 0 Q 100 0 100 10 L 100 65 Q 100 75 90 75 L 10 75 Q 0 75 0 65 L 0 10 Q 0 0 10 0 Z" stroke-miterlimit="10" stroke-width="2"></path></g></g></g></g></g><g transform="scale(1,1) matrix(1,0,0,1,839.5,325) translate(2,0)"><text fill="rgb(8, 35, 63)" stroke="none" font-family="Arial" font-size="18px" font-style="normal" font-weight="normal" text-decoration="none" x="0" y="15">Old course</text></g><g transform="translate(0,0) matrix(1,0,0,1,720,400)"><g><g transform="translate(0,0) scale(1,0.75)"><g><path fill="none" stroke="none" d="M 10 0 L 90 0 Q 100 0 100 10 L 100 90 Q 100 100 90 100 L 10 100 Q 0 100 0 90 L 0 10 Q 0 0 10 0 Z"></path><g transform="scale(1,1.3333333333333333)"><path fill="#DDE6F1" stroke="none" d="M 10 0 L 90 0 Q 100 0 100 10 L 100 65 Q 100 75 90 75 L 10 75 Q 0 75 0 65 L 0 10 Q 0 0 10 0 Z"></path><path fill="none" stroke="#20124d" d="M 10 0 M 10 0 L 90 0 Q 100 0 100 10 L 100 65 Q 100 75 90 75 L 10 75 Q 0 75 0 65 L 0 10 Q 0 0 10 0 Z" stroke-miterlimit="10" stroke-width="2"></path></g></g></g></g></g><g transform="scale(1,1) matrix(1,0,0,1,839.5,427.5) translate(2,0)"><text fill="rgb(8, 35, 63)" stroke="none" font-family="Arial" font-size="18px" font-style="normal" font-weight="normal" text-decoration="none" x="0" y="15">New course</text></g><g transform="translate(0,0) matrix(1,0,0,1,720,497.5)"><g><g transform="translate(0,0) scale(1,0.75)"><g><path fill="none" stroke="none" d="M 10 0 L 90 0 Q 100 0 100 10 L 100 90 Q 100 100 90 100 L 10 100 Q 0 100 0 90 L 0 10 Q 0 0 10 0 Z"></path><g transform="scale(1,1.3333333333333333)"><path fill="#b6d7a8" stroke="none" d="M 10 0 L 90 0 Q 100 0 100 10 L 100 65 Q 100 75 90 75 L 10 75 Q 0 75 0 65 L 0 10 Q 0 0 10 0 Z"></path><path fill="none" stroke="rgb(0,0,0)" d="M 10 0 M 10 0 L 90 0 Q 100 0 100 10 L 100 65 Q 100 75 90 75 L 10 75 Q 0 75 0 65 L 0 10 Q 0 0 10 0 Z" stroke-opacity="0" stroke-miterlimit="10" stroke-width="2"></path></g></g></g></g></g><g transform="scale(1,1) matrix(1,0,0,1,839.5,522.5) translate(2,2.5)"><text fill="rgb(8, 35, 63)" stroke="none" font-family="Arial" font-size="18px" font-style="normal" font-weight="normal" text-decoration="none" x="0" y="15">Starting course</text></g><g transform="matrix(1,0,0,1,716.5,611.5)"><g transform="translate(0,0)"><g transform="translate(-721,-616) translate(4.5,4.5) matrix(1,0,0,1,0,0)"><g><path fill="none" stroke="#0B599F" d="M 721 616 L 822 616" stroke-miterlimit="10" stroke-width="2"></path></g></g></g></g><g transform="matrix(1,0,0,1,714.5,667.5)"><g transform="translate(0,0)"><g transform="translate(-719,-672) translate(4.5,4.5) matrix(1,0,0,1,0,0)"><g><path fill="none" stroke="#660000" d="M 719 672 L 821.0196059588546 672" stroke-miterlimit="10" stroke-width="2"></path></g></g></g></g><g transform="scale(1,1) matrix(1,0,0,1,839.5,605) translate(2,0)"><text fill="rgb(8, 35, 63)" stroke="none" font-family="Arial" font-size="18px" font-style="normal" font-weight="normal" text-decoration="none" x="0" y="15">Pre-requisite</text></g><g transform="scale(1,1) matrix(1,0,0,1,839.5,650) translate(2,0)"><text fill="rgb(8, 35, 63)" stroke="none" font-family="Arial" font-size="18px" font-style="normal" font-weight="normal" text-decoration="none" x="0" y="15">Recommended </text><text fill="rgb(8, 35, 63)" stroke="none" font-family="Arial" font-size="18px" font-style="normal" font-weight="normal" text-decoration="none" x="0" y="36">pre-requisite</text></g></g></svg>