<svg version="1.1" xmlns="http://www.w3.org/2000/svg" xmlns:xlink="http://www.w3.org/1999/xlink" width="783" height="663"><defs></defs><g transform="translate(0,0)"><g><rect fill="#FFFFFF" stroke="none" x="0" y="0" width="783" height="663"></rect></g><g transform="translate(0.5,0.5) matrix(1,0,0,1,470,10)"><g><g transform="translate(0,0) scale(1.2,1.075)"><g><path fill="#cccccc" stroke="none" d="M 0 0 L 100 0 Q 100 0 100 0 L 100 100 Q 100 100 100 100 L 0 100 Q 0 100 0 100 L 0 0 Q 0 0 0 0 Z"></path><g transform="scale(0.8333333333333334,0.9302325581395349)"><path fill="none" stroke="none" d="M 0 0 L 120 0 Q 120 0 120 0 L 120 107.5 Q 120 107.5 120 107.5 L 0 107.5 Q 0 107.5 0 107.5 L 0 0 Q 0 0 0 0 Z"></path><path fill="none" stroke="rgb(0,0,0)" d="M 0 0 M 0 0 L 120 0 Q 120 0 120 0 L 120 107.5 Q 120 107.5 120 107.5 L 0 107.5 Q 0 107.5 0 107.5 L 0 0 Q 0 0 0 0 Z" stroke-opacity="0" stroke-miterlimit="10"></path></g></g><g><g transform="scale(0.8333333333333334,0.9302325581395349)"><path fill="rgb(0,0,0)" stroke="none" d="M 2.4 2.15 L 2.4 104.27499999999999 L 116.39999999999999 104.27499999999999 L 116.39999999999999 3.2249999999999996 L 3.5999999999999996 3.2249999999999996 Z" fill-opacity="0" opacity="0"></path><path fill="none" stroke="#3C7626" d="M 2.4 2.15 M 2.4 2.15 L 2.4 6.15 M 2.4 6.15 M 2.4 8.15 L 2.4 12.15 M 2.4 12.15 M 2.4 14.15 L 2.4 18.15 M 2.4 18.15 M 2.4 20.15 L 2.4 24.15 M 2.4 24.15 M 2.4 26.15 L 2.4 30.15 M 2.4 30.15 M 2.4 32.15 L 2.4 36.15 M 2.4 36.15 M 2.4 38.15 L 2.4 42.15 M 2.4 42.15 M 2.4 44.15 L 2.4 48.15 M 2.4 48.15 M 2.4 50.15 L 2.4 54.15 M 2.4 54.15 M 2.4 56.15 L 2.4 60.15 M 2.4 60.15 M 2.4 62.15 L 2.4 66.15 M 2.4 66.15 M 2.4 68.15 L 2.4 72.15 M 2.4 72.15 M 2.4 74.15 L 2.4 78.15 M 2.4 78.15 M 2.4 80.15 L 2.4 84.15 M 2.4 84.15 M 2.4 86.15 L 2.4 90.15 M 2.4 90.15 M 2.4 92.15 L 2.4 96.15 M 2.4 96.15 M 2.4 98.15 L 2.4 102.15 M 2.4 102.15 M 2.4 104.15 L 2.4 104.27499999999999 L 6.275000000000015 104.27499999999999 M 6.275000000000015 104.27499999999999 M 8.275000000000015 104.27499999999999 L 12.275000000000015 104.27499999999999 M 12.275000000000015 104.27499999999999 M 14.275000000000015 104.27499999999999 L 18.275000000000013 104.27499999999999 M 18.275000000000013 104.27499999999999 M 20.275000000000013 104.27499999999999 L 24.275000000000013 104.27499999999999 M 24.275000000000013 104.27499999999999 M 26.275000000000013 104.27499999999999 L 30.275000000000013 104.27499999999999 M 30.275000000000013 104.27499999999999 M 32.27500000000001 104.27499999999999 L 36.27500000000001 104.27499999999999 M 36.27500000000001 104.27499999999999 M 38.27500000000001 104.27499999999999 L 42.27500000000001 104.27499999999999 M 42.27500000000001 104.27499999999999 M 44.27500000000001 104.27499999999999 L 48.27500000000001 104.27499999999999 M 48.27500000000001 104.27499999999999 M 50.27500000000001 104.27499999999999 L 54.27500000000001 104.27499999999999 M 54.27500000000001 104.27499999999999 M 56.27500000000001 104.27499999999999 L 60.27500000000001 104.27499999999999 M 60.27500000000001 104.27499999999999 M 62.27500000000001 104.27499999999999 L 66.275 104.27499999999999 M 66.275 104.27499999999999 M 68.275 104.27499999999999 L 72.275 104.27499999999999 M 72.275 104.27499999999999 M 74.275 104.27499999999999 L 78.275 104.27499999999999 M 78.275 104.27499999999999 M 80.275 104.27499999999999 L 84.275 104.27499999999999 M 84.275 104.27499999999999 M 86.275 104.27499999999999 L 90.275 104.27499999999999 M 90.275 104.27499999999999 M 92.275 104.27499999999999 L 96.275 104.27499999999999 M 96.275 104.27499999999999 M 98.275 104.27499999999999 L 102.275 104.27499999999999 M 102.275 104.27499999999999 M 104.275 104.27499999999999 L 108.275 104.27499999999999 M 108.275 104.27499999999999 M 110.275 104.27499999999999 L 114.275 104.27499999999999 M 114.275 104.27499999999999 M 116.275 104.27499999999999 L 116.39999999999999 104.27499999999999 L 116.39999999999999 100.39999999999998 M 116.39999999999999 100.39999999999998 M 116.39999999999999 98.39999999999998 L 116.39999999999999 94.39999999999998 M 116.39999999999999 94.39999999999998 M 116.39999999999999 92.39999999999998 L 116.39999999999999 88.39999999999998 M 116.39999999999999 88.39999999999998 M 116.39999999999999 86.39999999999998 L 116.39999999999999 82.39999999999998 M 116.39999999999999 82.39999999999998 M 116.39999999999999 80.39999999999998 L 116.39999999999999 76.39999999999998 M 116.39999999999999 76.39999999999998 M 116.39999999999999 74.39999999999998 L 116.39999999999999 70.39999999999998 M 116.39999999999999 70.39999999999998 M 116.39999999999999 68.39999999999998 L 116.39999999999999 64.39999999999998 M 116.39999999999999 64.39999999999998 M 116.39999999999999 62.39999999999998 L 116.39999999999999 58.39999999999998 M 116.39999999999999 58.39999999999998 M 116.39999999999999 56.39999999999998 L 116.39999999999999 52.39999999999998 M 116.39999999999999 52.39999999999998 M 116.39999999999999 50.39999999999998 L 116.39999999999999 46.39999999999998 M 116.39999999999999 46.39999999999998 M 116.39999999999999 44.39999999999998 L 116.39999999999999 40.39999999999998 M 116.39999999999999 40.39999999999998 M 116.39999999999999 38.39999999999998 L 116.39999999999999 34.39999999999998 M 116.39999999999999 34.39999999999998 M 116.39999999999999 32.39999999999998 L 116.39999999999999 28.399999999999977 M 116.39999999999999 28.399999999999977 M 116.39999999999999 26.399999999999977 L 116.39999999999999 22.399999999999977 M 116.39999999999999 22.399999999999977 M 116.39999999999999 20.399999999999977 L 116.39999999999999 16.399999999999977 M 116.39999999999999 16.399999999999977 M 116.39999999999999 14.399999999999977 L 116.39999999999999 10.399999999999977 M 116.39999999999999 10.399999999999977 M 116.39999999999999 8.399999999999977 L 116.39999999999999 4.399999999999977 M 116.39999999999999 4.399999999999977 M 115.57499999999997 3.2249999999999996 L 111.57499999999997 3.2249999999999996 M 111.57499999999997 3.2249999999999996 M 109.57499999999997 3.2249999999999996 L 105.57499999999997 3.2249999999999996 M 105.57499999999997 3.2249999999999996 M 103.57499999999997 3.2249999999999996 L 99.57499999999997 3.2249999999999996 M 99.57499999999997 3.2249999999999996 M 97.57499999999997 3.2249999999999996 L 93.57499999999997 3.2249999999999996 M 93.57499999999997 3.2249999999999996 M 91.57499999999997 3.2249999999999996 L 87.57499999999997 3.2249999999999996 M 87.57499999999997 3.2249999999999996 M 85.57499999999997 3.2249999999999996 L 81.57499999999997 3.2249999999999996 M 81.57499999999997 3.2249999999999996 M 79.57499999999997 3.2249999999999996 L 75.57499999999997 3.2249999999999996 M 75.57499999999997 3.2249999999999996 M 73.57499999999997 3.2249999999999996 L 69.57499999999997 3.2249999999999996 M 69.57499999999997 3.2249999999999996 M 67.57499999999997 3.2249999999999996 L 63.574999999999974 3.2249999999999996 M 63.574999999999974 3.2249999999999996 M 61.574999999999974 3.2249999999999996 L 57.574999999999974 3.2249999999999996 M 57.574999999999974 3.2249999999999996 M 55.574999999999974 3.2249999999999996 L 51.574999999999974 3.2249999999999996 M 51.574999999999974 3.2249999999999996 M 49.574999999999974 3.2249999999999996 L 45.574999999999974 3.2249999999999996 M 45.574999999999974 3.2249999999999996 M 43.574999999999974 3.2249999999999996 L 39.574999999999974 3.2249999999999996 M 39.574999999999974 3.2249999999999996 M 37.574999999999974 3.2249999999999996 L 33.574999999999974 3.2249999999999996 M 33.574999999999974 3.2249999999999996 M 31.574999999999974 3.2249999999999996 L 27.574999999999974 3.2249999999999996 M 27.574999999999974 3.2249999999999996 M 25.574999999999974 3.2249999999999996 L 21.574999999999974 3.2249999999999996 M 21.574999999999974 3.2249999999999996 M 19.574999999999974 3.2249999999999996 L 15.574999999999974 3.2249999999999996 M 15.574999999999974 3.2249999999999996 M 13.574999999999974 3.2249999999999996 L 9.574999999999974 3.2249999999999996 M 9.574999999999974 3.2249999999999996 M 7.574999999999974 3.2249999999999996 L 3.5999999999999996 3.2249999999999996 Z" stroke-miterlimit="10" opacity="0"></path></g></g></g></g></g><g transform="translate(0.5,0.5) matrix(1,0,0,1,300,10)"><g><g transform="translate(0,0) scale(1.8,5.9375)"><g><path fill="#cccccc" stroke="none" d="M 0 0 L 100 0 Q 100 0 100 0 L 100 100 Q 100 100 100 100 L 0 100 Q 0 100 0 100 L 0 0 Q 0 0 0 0 Z"></path><g transform="scale(0.5555555555555556,0.16842105263157894)"><path fill="none" stroke="none" d="M 0 0 L 180 0 Q 180 0 180 0 L 180 593.75 Q 180 593.75 180 593.75 L 0 593.75 Q 0 593.75 0 593.75 L 0 0 Q 0 0 0 0 Z"></path><path fill="none" stroke="rgb(0,0,0)" d="M 0 0 M 0 0 L 180 0 Q 180 0 180 0 L 180 593.75 Q 180 593.75 180 593.75 L 0 593.75 Q 0 593.75 0 593.75 L 0 0 Q 0 0 0 0 Z" stroke-opacity="0" stroke-miterlimit="10"></path></g></g><g><g transform="scale(0.5555555555555556,0.16842105263157894)"><path fill="rgb(0,0,0)" stroke="none" d="M 3.6 11.875 L 3.6 575.9375 L 174.6 575.9375 L 174.6 17.8125 L 5.4 17.8125 Z" fill-opacity="0" opacity="0"></path><path fill="none" stroke="#3C7626" d="M 3.6 11.875 M 3.6 11.875 L 3.6 15.875 M 3.6 15.875 M 3.6 17.875 L 3.6 21.875 M 3.6 21.875 M 3.6 23.875 L 3.6 27.875 M 3.6 27.875 M 3.6 29.875 L 3.6 33.875 M 3.6 33.875 M 3.6 35.875 L 3.6 39.875 M 3.6 39.875 M 3.6 41.875 L 3.6 45.875 M 3.6 45.875 M 3.6 47.875 L 3.6 51.875 M 3.6 51.875 M 3.6 53.875 L 3.6 57.875 M 3.6 57.875 M 3.6 59.875 L 3.6 63.875 M 3.6 63.875 M 3.6 65.875 L 3.6 69.875 M 3.6 69.875 M 3.6 71.875 L 3.6 75.875 M 3.6 75.875 M 3.6 77.875 L 3.6 81.875 M 3.6 81.875 M 3.6 83.875 L 3.6 87.875 M 3.6 87.875 M 3.6 89.875 L 3.6 93.875 M 3.6 93.875 M 3.6 95.875 L 3.6 99.875 M 3.6 99.875 M 3.6 101.875 L 3.6 105.875 M 3.6 105.875 M 3.6 107.875 L 3.6 111.875 M 3.6 111.875 M 3.6 113.875 L 3.6 117.875 M 3.6 117.875 M 3.6 119.875 L 3.6 123.875 M 3.6 123.875 M 3.6 125.875 L 3.6 129.875 M 3.6 129.875 M 3.6 131.875 L 3.6 135.875 M 3.6 135.875 M 3.6 137.875 L 3.6 141.875 M 3.6 141.875 M 3.6 143.875 L 3.6 147.875 M 3.6 147.875 M 3.6 149.875 L 3.6 153.875 M 3.6 153.875 M 3.6 155.875 L 3.6 159.875 M 3.6 159.875 M 3.6 161.875 L 3.6 165.875 M 3.6 165.875 M 3.6 167.875 L 3.6 171.875 M 3.6 171.875 M 3.6 173.875 L 3.6 177.875 M 3.6 177.875 M 3.6 179.875 L 3.6 183.875 M 3.6 183.875 M 3.6 185.875 L 3.6 189.875 M 3.6 189.875 M 3.6 191.875 L 3.6 195.875 M 3.6 195.875 M 3.6 197.875 L 3.6 201.875 M 3.6 201.875 M 3.6 203.875 L 3.6 207.875 M 3.6 207.875 M 3.6 209.875 L 3.6 213.875 M 3.6 213.875 M 3.6 215.875 L 3.6 219.875 M 3.6 219.875 M 3.6 221.875 L 3.6 225.875 M 3.6 225.875 M 3.6 227.875 L 3.6 231.875 M 3.6 231.875 M 3.6 233.875 L 3.6 237.875 M 3.6 237.875 M 3.6 239.875 L 3.6 243.875 M 3.6 243.875 M 3.6 245.875 L 3.6 249.875 M 3.6 249.875 M 3.6 251.875 L 3.6 255.875 M 3.6 255.875 M 3.6 257.875 L 3.6 261.875 M 3.6 261.875 M 3.6 263.875 L 3.6 267.875 M 3.6 267.875 M 3.6 269.875 L 3.6 273.875 M 3.6 273.875 M 3.6 275.875 L 3.6 279.875 M 3.6 279.875 M 3.6 281.875 L 3.6 285.875 M 3.6 285.875 M 3.6 287.875 L 3.6 291.875 M 3.6 291.875 M 3.6 293.875 L 3.6 297.875 M 3.6 297.875 M 3.6 299.875 L 3.6 303.875 M 3.6 303.875 M 3.6 305.875 L 3.6 309.875 M 3.6 309.875 M 3.6 311.875 L 3.6 315.875 M 3.6 315.875 M 3.6 317.875 L 3.6 321.875 M 3.6 321.875 M 3.6 323.875 L 3.6 327.875 M 3.6 327.875 M 3.6 329.875 L 3.6 333.875 M 3.6 333.875 M 3.6 335.875 L 3.6 339.875 M 3.6 339.875 M 3.6 341.875 L 3.6 345.875 M 3.6 345.875 M 3.6 347.875 L 3.6 351.875 M 3.6 351.875 M 3.6 353.875 L 3.6 357.875 M 3.6 357.875 M 3.6 359.875 L 3.6 363.875 M 3.6 363.875 M 3.6 365.875 L 3.6 369.875 M 3.6 369.875 M 3.6 371.875 L 3.6 375.875 M 3.6 375.875 M 3.6 377.875 L 3.6 381.875 M 3.6 381.875 M 3.6 383.875 L 3.6 387.875 M 3.6 387.875 M 3.6 389.875 L 3.6 393.875 M 3.6 393.875 M 3.6 395.875 L 3.6 399.875 M 3.6 399.875 M 3.6 401.875 L 3.6 405.875 M 3.6 405.875 M 3.6 407.875 L 3.6 411.875 M 3.6 411.875 M 3.6 413.875 L 3.6 417.875 M 3.6 417.875 M 3.6 419.875 L 3.6 423.875 M 3.6 423.875 M 3.6 425.875 L 3.6 429.875 M 3.6 429.875 M 3.6 431.875 L 3.6 435.875 M 3.6 435.875 M 3.6 437.875 L 3.6 441.875 M 3.6 441.875 M 3.6 443.875 L 3.6 447.875 M 3.6 447.875 M 3.6 449.875 L 3.6 453.875 M 3.6 453.875 M 3.6 455.875 L 3.6 459.875 M 3.6 459.875 M 3.6 461.875 L 3.6 465.875 M 3.6 465.875 M 3.6 467.875 L 3.6 471.875 M 3.6 471.875 M 3.6 473.875 L 3.6 477.875 M 3.6 477.875 M 3.6 479.875 L 3.6 483.875 M 3.6 483.875 M 3.6 485.875 L 3.6 489.875 M 3.6 489.875 M 3.6 491.875 L 3.6 495.875 M 3.6 495.875 M 3.6 497.875 L 3.6 501.875 M 3.6 501.875 M 3.6 503.875 L 3.6 507.875 M 3.6 507.875 M 3.6 509.875 L 3.6 513.875 M 3.6 513.875 M 3.6 515.875 L 3.6 519.875 M 3.6 519.875 M 3.6 521.875 L 3.6 525.875 M 3.6 525.875 M 3.6 527.875 L 3.6 531.875 M 3.6 531.875 M 3.6 533.875 L 3.6 537.875 M 3.6 537.875 M 3.6 539.875 L 3.6 543.875 M 3.6 543.875 M 3.6 545.875 L 3.6 549.875 M 3.6 549.875 M 3.6 551.875 L 3.6 555.875 M 3.6 555.875 M 3.6 557.875 L 3.6 561.875 M 3.6 561.875 M 3.6 563.875 L 3.6 567.875 M 3.6 567.875 M 3.6 569.875 L 3.6 573.875 M 3.6 573.875 M 3.6 575.875 L 3.6 575.9375 L 7.5375 575.9375 M 7.5375 575.9375 M 9.5375 575.9375 L 13.5375 575.9375 M 13.5375 575.9375 M 15.5375 575.9375 L 19.5375 575.9375 M 19.5375 575.9375 M 21.5375 575.9375 L 25.5375 575.9375 M 25.5375 575.9375 M 27.5375 575.9375 L 31.5375 575.9375 M 31.5375 575.9375 M 33.5375 575.9375 L 37.5375 575.9375 M 37.5375 575.9375 M 39.5375 575.9375 L 43.5375 575.9375 M 43.5375 575.9375 M 45.5375 575.9375 L 49.5375 575.9375 M 49.5375 575.9375 M 51.5375 575.9375 L 55.5375 575.9375 M 55.5375 575.9375 M 57.5375 575.9375 L 61.5375 575.9375 M 61.5375 575.9375 M 63.5375 575.9375 L 67.5375 575.9375 M 67.5375 575.9375 M 69.5375 575.9375 L 73.5375 575.9375 M 73.5375 575.9375 M 75.5375 575.9375 L 79.5375 575.9375 M 79.5375 575.9375 M 81.5375 575.9375 L 85.5375 575.9375 M 85.5375 575.9375 M 87.5375 575.9375 L 91.5375 575.9375 M 91.5375 575.9375 M 93.5375 575.9375 L 97.5375 575.9375 M 97.5375 575.9375 M 99.5375 575.9375 L 103.5375 575.9375 M 103.5375 575.9375 M 105.5375 575.9375 L 109.5375 575.9375 M 109.5375 575.9375 M 111.5375 575.9375 L 115.5375 575.9375 M 115.5375 575.9375 M 117.5375 575.9375 L 121.5375 575.9375 M 121.5375 575.9375 M 123.5375 575.9375 L 127.5375 575.9375 M 127.5375 575.9375 M 129.5375 575.9375 L 133.5375 575.9375 M 133.5375 575.9375 M 135.5375 575.9375 L 139.5375 575.9375 M 139.5375 575.9375 M 141.5375 575.9375 L 145.5375 575.9375 M 145.5375 575.9375 M 147.5375 575.9375 L 151.5375 575.9375 M 151.5375 575.9375 M 153.5375 575.9375 L 157.5375 575.9375 M 157.5375 575.9375 M 159.5375 575.9375 L 163.5375 575.9375 M 163.5375 575.9375 M 165.5375 575.9375 L 169.5375 575.9375 M 169.5375 575.9375 M 171.5375 575.9375 L 174.6 575.9375 L 174.6 575 M 174.6 575 M 174.6 573 L 174.6 569 M 174.6 569 M 174.6 567 L 174.6 563 M 174.6 563 M 174.6 561 L 174.6 557 M 174.6 557 M 174.6 555 L 174.6 551 M 174.6 551 M 174.6 549 L 174.6 545 M 174.6 545 M 174.6 543 L 174.6 539 M 174.6 539 M 174.6 537 L 174.6 533 M 174.6 533 M 174.6 531 L 174.6 527 M 174.6 527 M 174.6 525 L 174.6 521 M 174.6 521 M 174.6 519 L 174.6 515 M 174.6 515 M 174.6 513 L 174.6 509 M 174.6 509 M 174.6 507 L 174.6 503 M 174.6 503 M 174.6 501 L 174.6 497 M 174.6 497 M 174.6 495 L 174.6 491 M 174.6 491 M 174.6 489 L 174.6 485 M 174.6 485 M 174.6 483 L 174.6 479 M 174.6 479 M 174.6 477 L 174.6 473 M 174.6 473 M 174.6 471 L 174.6 467 M 174.6 467 M 174.6 465 L 174.6 461 M 174.6 461 M 174.6 459 L 174.6 455 M 174.6 455 M 174.6 453 L 174.6 449 M 174.6 449 M 174.6 447 L 174.6 443 M 174.6 443 M 174.6 441 L 174.6 437 M 174.6 437 M 174.6 435 L 174.6 431 M 174.6 431 M 174.6 429 L 174.6 425 M 174.6 425 M 174.6 423 L 174.6 419 M 174.6 419 M 174.6 417 L 174.6 413 M 174.6 413 M 174.6 411 L 174.6 407 M 174.6 407 M 174.6 405 L 174.6 401 M 174.6 401 M 174.6 399 L 174.6 395 M 174.6 395 M 174.6 393 L 174.6 389 M 174.6 389 M 174.6 387 L 174.6 383 M 174.6 383 M 174.6 381 L 174.6 377 M 174.6 377 M 174.6 375 L 174.6 371 M 174.6 371 M 174.6 369 L 174.6 365 M 174.6 365 M 174.6 363 L 174.6 359 M 174.6 359 M 174.6 357 L 174.6 353 M 174.6 353 M 174.6 351 L 174.6 347 M 174.6 347 M 174.6 345 L 174.6 341 M 174.6 341 M 174.6 339 L 174.6 335 M 174.6 335 M 174.6 333 L 174.6 329 M 174.6 329 M 174.6 327 L 174.6 323 M 174.6 323 M 174.6 321 L 174.6 317 M 174.6 317 M 174.6 315 L 174.6 311 M 174.6 311 M 174.6 309 L 174.6 305 M 174.6 305 M 174.6 303 L 174.6 299 M 174.6 299 M 174.6 297 L 174.6 293 M 174.6 293 M 174.6 291 L 174.6 287 M 174.6 287 M 174.6 285 L 174.6 281 M 174.6 281 M 174.6 279 L 174.6 275 M 174.6 275 M 174.6 273 L 174.6 269 M 174.6 269 M 174.6 267 L 174.6 263 M 174.6 263 M 174.6 261 L 174.6 257 M 174.6 257 M 174.6 255 L 174.6 251 M 174.6 251 M 174.6 249 L 174.6 245 M 174.6 245 M 174.6 243 L 174.6 239 M 174.6 239 M 174.6 237 L 174.6 233 M 174.6 233 M 174.6 231 L 174.6 227 M 174.6 227 M 174.6 225 L 174.6 221 M 174.6 221 M 174.6 219 L 174.6 215 M 174.6 215 M 174.6 213 L 174.6 209 M 174.6 209 M 174.6 207 L 174.6 203 M 174.6 203 M 174.6 201 L 174.6 197 M 174.6 197 M 174.6 195 L 174.6 191 M 174.6 191 M 174.6 189 L 174.6 185 M 174.6 185 M 174.6 183 L 174.6 179 M 174.6 179 M 174.6 177 L 174.6 173 M 174.6 173 M 174.6 171 L 174.6 167 M 174.6 167 M 174.6 165 L 174.6 161 M 174.6 161 M 174.6 159 L 174.6 155 M 174.6 155 M 174.6 153 L 174.6 149 M 174.6 149 M 174.6 147 L 174.6 143 M 174.6 143 M 174.6 141 L 174.6 137 M 174.6 137 M 174.6 135 L 174.6 131 M 174.6 131 M 174.6 129 L 174.6 125 M 174.6 125 M 174.6 123 L 174.6 119 M 174.6 119 M 174.6 117 L 174.6 113 M 174.6 113 M 174.6 111 L 174.6 107 M 174.6 107 M 174.6 105 L 174.6 101 M 174.6 101 M 174.6 99 L 174.6 95 M 174.6 95 M 174.6 93 L 174.6 89 M 174.6 89 M 174.6 87 L 174.6 83 M 174.6 83 M 174.6 81 L 174.6 77 M 174.6 77 M 174.6 75 L 174.6 71 M 174.6 71 M 174.6 69 L 174.6 65 M 174.6 65 M 174.6 63 L 174.6 59 M 174.6 59 M 174.6 57 L 174.6 53 M 174.6 53 M 174.6 51 L 174.6 47 M 174.6 47 M 174.6 45 L 174.6 41 M 174.6 41 M 174.6 39 L 174.6 35 M 174.6 35 M 174.6 33 L 174.6 29 M 174.6 29 M 174.6 27 L 174.6 23 M 174.6 23 M 174.6 21 L 174.6 17.8125 L 173.7875 17.8125 M 173.7875 17.8125 M 171.7875 17.8125 L 167.7875 17.8125 M 167.7875 17.8125 M 165.7875 17.8125 L 161.7875 17.8125 M 161.7875 17.8125 M 159.7875 17.8125 L 155.7875 17.8125 M 155.7875 17.8125 M 153.7875 17.8125 L 149.7875 17.8125 M 149.7875 17.8125 M 147.7875 17.8125 L 143.7875 17.8125 M 143.7875 17.8125 M 141.7875 17.8125 L 137.7875 17.8125 M 137.7875 17.8125 M 135.7875 17.8125 L 131.7875 17.8125 M 131.7875 17.8125 M 129.7875 17.8125 L 125.7875 17.8125 M 125.7875 17.8125 M 123.7875 17.8125 L 119.7875 17.8125 M 119.7875 17.8125 M 117.7875 17.8125 L 113.7875 17.8125 M 113.7875 17.8125 M 111.7875 17.8125 L 107.7875 17.8125 M 107.7875 17.8125 M 105.7875 17.8125 L 101.7875 17.8125 M 101.7875 17.8125 M 99.7875 17.8125 L 95.7875 17.8125 M 95.7875 17.8125 M 93.7875 17.8125 L 89.7875 17.8125 M 89.7875 17.8125 M 87.7875 17.8125 L 83.7875 17.8125 M 83.7875 17.8125 M 81.7875 17.8125 L 77.7875 17.8125 M 77.7875 17.8125 M 75.7875 17.8125 L 71.7875 17.8125 M 71.7875 17.8125 M 69.7875 17.8125 L 65.7875 17.8125 M 65.7875 17.8125 M 63.787499999999994 17.8125 L 59.787499999999994 17.8125 M 59.787499999999994 17.8125 M 57.787499999999994 17.8125 L 53.787499999999994 17.8125 M 53.787499999999994 17.8125 M 51.787499999999994 17.8125 L 47.787499999999994 17.8125 M 47.787499999999994 17.8125 M 45.787499999999994 17.8125 L 41.787499999999994 17.8125 M 41.787499999999994 17.8125 M 39.787499999999994 17.8125 L 35.787499999999994 17.8125 M 35.787499999999994 17.8125 M 33.787499999999994 17.8125 L 29.787499999999994 17.8125 M 29.787499999999994 17.8125 M 27.787499999999994 17.8125 L 23.787499999999994 17.8125 M 23.787499999999994 17.8125 M 21.787499999999994 17.8125 L 17.787499999999994 17.8125 M 17.787499999999994 17.8125 M 15.787499999999994 17.8125 L 11.787499999999994 17.8125 M 11.787499999999994 17.8125 M 9.787499999999994 17.8125 L 5.787499999999994 17.8125 M 5.787499999999994 17.8125 Z" stroke-miterlimit="10" opacity="0"></path></g></g></g></g></g><g transform="translate(0.5,0.5) matrix(1,0,0,1,10,45)"><g><g transform="translate(0,0) scale(2.9000000000000004,5.25)"><g><path fill="#d9d9d9" stroke="none" d="M 0 0 L 100 0 Q 100 0 100 0 L 100 100 Q 100 100 100 100 L 0 100 Q 0 100 0 100 L 0 0 Q 0 0 0 0 Z"></path><g transform="scale(0.3448275862068965,0.19047619047619047)"><path fill="none" stroke="none" d="M 0 0 L 290.00000000000006 0 Q 290.00000000000006 0 290.00000000000006 0 L 290.00000000000006 525 Q 290.00000000000006 525 290.00000000000006 525 L 0 525 Q 0 525 0 525 L 0 0 Q 0 0 0 0 Z"></path><path fill="none" stroke="rgb(0,0,0)" d="M 0 0 M 0 0 L 290.00000000000006 0 Q 290.00000000000006 0 290.00000000000006 0 L 290.00000000000006 525 Q 290.00000000000006 525 290.00000000000006 525 L 0 525 Q 0 525 0 525 L 0 0 Q 0 0 0 0 Z" stroke-opacity="0" stroke-miterlimit="10"></path></g></g><g><g transform="scale(0.3448275862068965,0.19047619047619047)"><path fill="rgb(0,0,0)" stroke="none" d="M 5.800000000000001 10.5 L 5.800000000000001 509.25 L 281.3 509.25 L 281.3 15.75 L 8.700000000000001 15.75 Z" fill-opacity="0" opacity="0"></path><path fill="none" stroke="#3C7626" d="M 5.800000000000001 10.5 M 5.800000000000001 10.5 L 5.800000000000001 14.5 M 5.800000000000001 14.5 M 5.800000000000001 16.5 L 5.800000000000001 20.5 M 5.800000000000001 20.5 M 5.800000000000001 22.5 L 5.800000000000001 26.5 M 5.800000000000001 26.5 M 5.800000000000001 28.5 L 5.800000000000001 32.5 M 5.800000000000001 32.5 M 5.800000000000001 34.5 L 5.800000000000001 38.5 M 5.800000000000001 38.5 M 5.800000000000001 40.5 L 5.800000000000001 44.5 M 5.800000000000001 44.5 M 5.800000000000001 46.5 L 5.800000000000001 50.5 M 5.800000000000001 50.5 M 5.800000000000001 52.5 L 5.800000000000001 56.5 M 5.800000000000001 56.5 M 5.800000000000001 58.5 L 5.800000000000001 62.5 M 5.800000000000001 62.5 M 5.800000000000001 64.5 L 5.800000000000001 68.5 M 5.800000000000001 68.5 M 5.800000000000001 70.5 L 5.800000000000001 74.5 M 5.800000000000001 74.5 M 5.800000000000001 76.5 L 5.800000000000001 80.5 M 5.800000000000001 80.5 M 5.800000000000001 82.5 L 5.800000000000001 86.5 M 5.800000000000001 86.5 M 5.800000000000001 88.5 L 5.800000000000001 92.5 M 5.800000000000001 92.5 M 5.800000000000001 94.5 L 5.800000000000001 98.5 M 5.800000000000001 98.5 M 5.800000000000001 100.5 L 5.800000000000001 104.5 M 5.800000000000001 104.5 M 5.800000000000001 106.5 L 5.800000000000001 110.5 M 5.800000000000001 110.5 M 5.800000000000001 112.5 L 5.800000000000001 116.5 M 5.800000000000001 116.5 M 5.800000000000001 118.5 L 5.800000000000001 122.5 M 5.800000000000001 122.5 M 5.800000000000001 124.5 L 5.800000000000001 128.5 M 5.800000000000001 128.5 M 5.800000000000001 130.5 L 5.800000000000001 134.5 M 5.800000000000001 134.5 M 5.800000000000001 136.5 L 5.800000000000001 140.5 M 5.800000000000001 140.5 M 5.800000000000001 142.5 L 5.800000000000001 146.5 M 5.800000000000001 146.5 M 5.800000000000001 148.5 L 5.800000000000001 152.5 M 5.800000000000001 152.5 M 5.800000000000001 154.5 L 5.800000000000001 158.5 M 5.800000000000001 158.5 M 5.800000000000001 160.5 L 5.800000000000001 164.5 M 5.800000000000001 164.5 M 5.800000000000001 166.5 L 5.800000000000001 170.5 M 5.800000000000001 170.5 M 5.800000000000001 172.5 L 5.800000000000001 176.5 M 5.800000000000001 176.5 M 5.800000000000001 178.5 L 5.800000000000001 182.5 M 5.800000000000001 182.5 M 5.800000000000001 184.5 L 5.800000000000001 188.5 M 5.800000000000001 188.5 M 5.800000000000001 190.5 L 5.800000000000001 194.5 M 5.800000000000001 194.5 M 5.800000000000001 196.5 L 5.800000000000001 200.5 M 5.800000000000001 200.5 M 5.800000000000001 202.5 L 5.800000000000001 206.5 M 5.800000000000001 206.5 M 5.800000000000001 208.5 L 5.800000000000001 212.5 M 5.800000000000001 212.5 M 5.800000000000001 214.5 L 5.800000000000001 218.5 M 5.800000000000001 218.5 M 5.800000000000001 220.5 L 5.800000000000001 224.5 M 5.800000000000001 224.5 M 5.800000000000001 226.5 L 5.800000000000001 230.5 M 5.800000000000001 230.5 M 5.800000000000001 232.5 L 5.800000000000001 236.5 M 5.800000000000001 236.5 M 5.800000000000001 238.5 L 5.800000000000001 242.5 M 5.800000000000001 242.5 M 5.800000000000001 244.5 L 5.800000000000001 248.5 M 5.800000000000001 248.5 M 5.800000000000001 250.5 L 5.800000000000001 254.5 M 5.800000000000001 254.5 M 5.800000000000001 256.5 L 5.800000000000001 260.5 M 5.800000000000001 260.5 M 5.800000000000001 262.5 L 5.800000000000001 266.5 M 5.800000000000001 266.5 M 5.800000000000001 268.5 L 5.800000000000001 272.5 M 5.800000000000001 272.5 M 5.800000000000001 274.5 L 5.800000000000001 278.5 M 5.800000000000001 278.5 M 5.800000000000001 280.5 L 5.800000000000001 284.5 M 5.800000000000001 284.5 M 5.800000000000001 286.5 L 5.800000000000001 290.5 M 5.800000000000001 290.5 M 5.800000000000001 292.5 L 5.800000000000001 296.5 M 5.800000000000001 296.5 M 5.800000000000001 298.5 L 5.800000000000001 302.5 M 5.800000000000001 302.5 M 5.800000000000001 304.5 L 5.800000000000001 308.5 M 5.800000000000001 308.5 M 5.800000000000001 310.5 L 5.800000000000001 314.5 M 5.800000000000001 314.5 M 5.800000000000001 316.5 L 5.800000000000001 320.5 M 5.800000000000001 320.5 M 5.800000000000001 322.5 L 5.800000000000001 326.5 M 5.800000000000001 326.5 M 5.800000000000001 328.5 L 5.800000000000001 332.5 M 5.800000000000001 332.5 M 5.800000000000001 334.5 L 5.800000000000001 338.5 M 5.800000000000001 338.5 M 5.800000000000001 340.5 L 5.800000000000001 344.5 M 5.800000000000001 344.5 M 5.800000000000001 346.5 L 5.800000000000001 350.5 M 5.800000000000001 350.5 M 5.800000000000001 352.5 L 5.800000000000001 356.5 M 5.800000000000001 356.5 M 5.800000000000001 358.5 L 5.800000000000001 362.5 M 5.800000000000001 362.5 M 5.800000000000001 364.5 L 5.800000000000001 368.5 M 5.800000000000001 368.5 M 5.800000000000001 370.5 L 5.800000000000001 374.5 M 5.800000000000001 374.5 M 5.800000000000001 376.5 L 5.800000000000001 380.5 M 5.800000000000001 380.5 M 5.800000000000001 382.5 L 5.800000000000001 386.5 M 5.800000000000001 386.5 M 5.800000000000001 388.5 L 5.800000000000001 392.5 M 5.800000000000001 392.5 M 5.800000000000001 394.5 L 5.800000000000001 398.5 M 5.800000000000001 398.5 M 5.800000000000001 400.5 L 5.800000000000001 404.5 M 5.800000000000001 404.5 M 5.800000000000001 406.5 L 5.800000000000001 410.5 M 5.800000000000001 410.5 M 5.800000000000001 412.5 L 5.800000000000001 416.5 M 5.800000000000001 416.5 M 5.800000000000001 418.5 L 5.800000000000001 422.5 M 5.800000000000001 422.5 M 5.800000000000001 424.5 L 5.800000000000001 428.5 M 5.800000000000001 428.5 M 5.800000000000001 430.5 L 5.800000000000001 434.5 M 5.800000000000001 434.5 M 5.800000000000001 436.5 L 5.800000000000001 440.5 M 5.800000000000001 440.5 M 5.800000000000001 442.5 L 5.800000000000001 446.5 M 5.800000000000001 446.5 M 5.800000000000001 448.5 L 5.800000000000001 452.5 M 5.800000000000001 452.5 M 5.800000000000001 454.5 L 5.800000000000001 458.5 M 5.800000000000001 458.5 M 5.800000000000001 460.5 L 5.800000000000001 464.5 M 5.800000000000001 464.5 M 5.800000000000001 466.5 L 5.800000000000001 470.5 M 5.800000000000001 470.5 M 5.800000000000001 472.5 L 5.800000000000001 476.5 M 5.800000000000001 476.5 M 5.800000000000001 478.5 L 5.800000000000001 482.5 M 5.800000000000001 482.5 M 5.800000000000001 484.5 L 5.800000000000001 488.5 M 5.800000000000001 488.5 M 5.800000000000001 490.5 L 5.800000000000001 494.5 M 5.800000000000001 494.5 M 5.800000000000001 496.5 L 5.800000000000001 500.5 M 5.800000000000001 500.5 M 5.800000000000001 502.5 L 5.800000000000001 506.5 M 5.800000000000001 506.5 M 5.800000000000001 508.5 L 5.800000000000001 509.25 L 9.05 509.25 M 9.05 509.25 M 11.05 509.25 L 15.05 509.25 M 15.05 509.25 M 17.05 509.25 L 21.05 509.25 M 21.05 509.25 M 23.05 509.25 L 27.05 509.25 M 27.05 509.25 M 29.05 509.25 L 33.05 509.25 M 33.05 509.25 M 35.05 509.25 L 39.05 509.25 M 39.05 509.25 M 41.05 509.25 L 45.05 509.25 M 45.05 509.25 M 47.05 509.25 L 51.05 509.25 M 51.05 509.25 M 53.05 509.25 L 57.05 509.25 M 57.05 509.25 M 59.05 509.25 L 63.05 509.25 M 63.05 509.25 M 65.05 509.25 L 69.05 509.25 M 69.05 509.25 M 71.05 509.25 L 75.05 509.25 M 75.05 509.25 M 77.05 509.25 L 81.05 509.25 M 81.05 509.25 M 83.05 509.25 L 87.05 509.25 M 87.05 509.25 M 89.05 509.25 L 93.05 509.25 M 93.05 509.25 M 95.05 509.25 L 99.05 509.25 M 99.05 509.25 M 101.05 509.25 L 105.05 509.25 M 105.05 509.25 M 107.05 509.25 L 111.05 509.25 M 111.05 509.25 M 113.05 509.25 L 117.05 509.25 M 117.05 509.25 M 119.05 509.25 L 123.05 509.25 M 123.05 509.25 M 125.05 509.25 L 129.05 509.25 M 129.05 509.25 M 131.05 509.25 L 135.05 509.25 M 135.05 509.25 M 137.05 509.25 L 141.05 509.25 M 141.05 509.25 M 143.05 509.25 L 147.05 509.25 M 147.05 509.25 M 149.05 509.25 L 153.05 509.25 M 153.05 509.25 M 155.05 509.25 L 159.05 509.25 M 159.05 509.25 M 161.05 509.25 L 165.05 509.25 M 165.05 509.25 M 167.05 509.25 L 171.05 509.25 M 171.05 509.25 M 173.05 509.25 L 177.05 509.25 M 177.05 509.25 M 179.05 509.25 L 183.05 509.25 M 183.05 509.25 M 185.05 509.25 L 189.05 509.25 M 189.05 509.25 M 191.05 509.25 L 195.05 509.25 M 195.05 509.25 M 197.05 509.25 L 201.05 509.25 M 201.05 509.25 M 203.05 509.25 L 207.05 509.25 M 207.05 509.25 M 209.05 509.25 L 213.05 509.25 M 213.05 509.25 M 215.05 509.25 L 219.05 509.25 M 219.05 509.25 M 221.05 509.25 L 225.05 509.25 M 225.05 509.25 M 227.05 509.25 L 231.05 509.25 M 231.05 509.25 M 233.05 509.25 L 237.05 509.25 M 237.05 509.25 M 239.05 509.25 L 243.05 509.25 M 243.05 509.25 M 245.05 509.25 L 249.05 509.25 M 249.05 509.25 M 251.05 509.25 L 255.05 509.25 M 255.05 509.25 M 257.05 509.25 L 261.05 509.25 M 261.05 509.25 M 263.05 509.25 L 267.05 509.25 M 267.05 509.25 M 269.05 509.25 L 273.05 509.25 M 273.05 509.25 M 275.05 509.25 L 279.05 509.25 M 279.05 509.25 M 281.05 509.25 L 281.3 509.25 L 281.3 505.5 M 281.3 505.5 M 281.3 503.5 L 281.3 499.5 M 281.3 499.5 M 281.3 497.5 L 281.3 493.5 M 281.3 493.5 M 281.3 491.5 L 281.3 487.5 M 281.3 487.5 M 281.3 485.5 L 281.3 481.5 M 281.3 481.5 M 281.3 479.5 L 281.3 475.5 M 281.3 475.5 M 281.3 473.5 L 281.3 469.5 M 281.3 469.5 M 281.3 467.5 L 281.3 463.5 M 281.3 463.5 M 281.3 461.5 L 281.3 457.5 M 281.3 457.5 M 281.3 455.5 L 281.3 451.5 M 281.3 451.5 M 281.3 449.5 L 281.3 445.5 M 281.3 445.5 M 281.3 443.5 L 281.3 439.5 M 281.3 439.5 M 281.3 437.5 L 281.3 433.5 M 281.3 433.5 M 281.3 431.5 L 281.3 427.5 M 281.3 427.5 M 281.3 425.5 L 281.3 421.5 M 281.3 421.5 M 281.3 419.5 L 281.3 415.5 M 281.3 415.5 M 281.3 413.5 L 281.3 409.5 M 281.3 409.5 M 281.3 407.5 L 281.3 403.5 M 281.3 403.5 M 281.3 401.5 L 281.3 397.5 M 281.3 397.5 M 281.3 395.5 L 281.3 391.5 M 281.3 391.5 M 281.3 389.5 L 281.3 385.5 M 281.3 385.5 M 281.3 383.5 L 281.3 379.5 M 281.3 379.5 M 281.3 377.5 L 281.3 373.5 M 281.3 373.5 M 281.3 371.5 L 281.3 367.5 M 281.3 367.5 M 281.3 365.5 L 281.3 361.5 M 281.3 361.5 M 281.3 359.5 L 281.3 355.5 M 281.3 355.5 M 281.3 353.5 L 281.3 349.5 M 281.3 349.5 M 281.3 347.5 L 281.3 343.5 M 281.3 343.5 M 281.3 341.5 L 281.3 337.5 M 281.3 337.5 M 281.3 335.5 L 281.3 331.5 M 281.3 331.5 M 281.3 329.5 L 281.3 325.5 M 281.3 325.5 M 281.3 323.5 L 281.3 319.5 M 281.3 319.5 M 281.3 317.5 L 281.3 313.5 M 281.3 313.5 M 281.3 311.5 L 281.3 307.5 M 281.3 307.5 M 281.3 305.5 L 281.3 301.5 M 281.3 301.5 M 281.3 299.5 L 281.3 295.5 M 281.3 295.5 M 281.3 293.5 L 281.3 289.5 M 281.3 289.5 M 281.3 287.5 L 281.3 283.5 M 281.3 283.5 M 281.3 281.5 L 281.3 277.5 M 281.3 277.5 M 281.3 275.5 L 281.3 271.5 M 281.3 271.5 M 281.3 269.5 L 281.3 265.5 M 281.3 265.5 M 281.3 263.5 L 281.3 259.5 M 281.3 259.5 M 281.3 257.5 L 281.3 253.5 M 281.3 253.5 M 281.3 251.5 L 281.3 247.5 M 281.3 247.5 M 281.3 245.5 L 281.3 241.5 M 281.3 241.5 M 281.3 239.5 L 281.3 235.5 M 281.3 235.5 M 281.3 233.5 L 281.3 229.5 M 281.3 229.5 M 281.3 227.5 L 281.3 223.5 M 281.3 223.5 M 281.3 221.5 L 281.3 217.5 M 281.3 217.5 M 281.3 215.5 L 281.3 211.5 M 281.3 211.5 M 281.3 209.5 L 281.3 205.5 M 281.3 205.5 M 281.3 203.5 L 281.3 199.5 M 281.3 199.5 M 281.3 197.5 L 281.3 193.5 M 281.3 193.5 M 281.3 191.5 L 281.3 187.5 M 281.3 187.5 M 281.3 185.5 L 281.3 181.5 M 281.3 181.5 M 281.3 179.5 L 281.3 175.5 M 281.3 175.5 M 281.3 173.5 L 281.3 169.5 M 281.3 169.5 M 281.3 167.5 L 281.3 163.5 M 281.3 163.5 M 281.3 161.5 L 281.3 157.5 M 281.3 157.5 M 281.3 155.5 L 281.3 151.5 M 281.3 151.5 M 281.3 149.5 L 281.3 145.5 M 281.3 145.5 M 281.3 143.5 L 281.3 139.5 M 281.3 139.5 M 281.3 137.5 L 281.3 133.5 M 281.3 133.5 M 281.3 131.5 L 281.3 127.5 M 281.3 127.5 M 281.3 125.5 L 281.3 121.5 M 281.3 121.5 M 281.3 119.5 L 281.3 115.5 M 281.3 115.5 M 281.3 113.5 L 281.3 109.5 M 281.3 109.5 M 281.3 107.5 L 281.3 103.5 M 281.3 103.5 M 281.3 101.5 L 281.3 97.5 M 281.3 97.5 M 281.3 95.5 L 281.3 91.5 M 281.3 91.5 M 281.3 89.5 L 281.3 85.5 M 281.3 85.5 M 281.3 83.5 L 281.3 79.5 M 281.3 79.5 M 281.3 77.5 L 281.3 73.5 M 281.3 73.5 M 281.3 71.5 L 281.3 67.5 M 281.3 67.5 M 281.3 65.5 L 281.3 61.5 M 281.3 61.5 M 281.3 59.5 L 281.3 55.5 M 281.3 55.5 M 281.3 53.5 L 281.3 49.5 M 281.3 49.5 M 281.3 47.5 L 281.3 43.5 M 281.3 43.5 M 281.3 41.5 L 281.3 37.5 M 281.3 37.5 M 281.3 35.5 L 281.3 31.5 M 281.3 31.5 M 281.3 29.5 L 281.3 25.5 M 281.3 25.5 M 281.3 23.5 L 281.3 19.5 M 281.3 19.5 M 281.3 17.5 L 281.3 15.75 L 279.05 15.75 M 279.05 15.75 M 277.05 15.75 L 273.05 15.75 M 273.05 15.75 M 271.05 15.75 L 267.05 15.75 M 267.05 15.75 M 265.05 15.75 L 261.05 15.75 M 261.05 15.75 M 259.05 15.75 L 255.05 15.75 M 255.05 15.75 M 253.05 15.75 L 249.05 15.75 M 249.05 15.75 M 247.05 15.75 L 243.05 15.75 M 243.05 15.75 M 241.05 15.75 L 237.05 15.75 M 237.05 15.75 M 235.05 15.75 L 231.05 15.75 M 231.05 15.75 M 229.05 15.75 L 225.05 15.75 M 225.05 15.75 M 223.05 15.75 L 219.05 15.75 M 219.05 15.75 M 217.05 15.75 L 213.05 15.75 M 213.05 15.75 M 211.05 15.75 L 207.05 15.75 M 207.05 15.75 M 205.05 15.75 L 201.05 15.75 M 201.05 15.75 M 199.05 15.75 L 195.05 15.75 M 195.05 15.75 M 193.05 15.75 L 189.05 15.75 M 189.05 15.75 M 187.05 15.75 L 183.05 15.75 M 183.05 15.75 M 181.05 15.75 L 177.05 15.75 M 177.05 15.75 M 175.05 15.75 L 171.05 15.75 M 171.05 15.75 M 169.05 15.75 L 165.05 15.75 M 165.05 15.75 M 163.05 15.75 L 159.05 15.75 M 159.05 15.75 M 157.05 15.75 L 153.05 15.75 M 153.05 15.75 M 151.05 15.75 L 147.05 15.75 M 147.05 15.75 M 145.05 15.75 L 141.05 15.75 M 141.05 15.75 M 139.05 15.75 L 135.05 15.75 M 135.05 15.75 M 133.05 15.75 L 129.05 15.75 M 129.05 15.75 M 127.05000000000001 15.75 L 123.05000000000001 15.75 M 123.05000000000001 15.75 M 121.05000000000001 15.75 L 117.05000000000001 15.75 M 117.05000000000001 15.75 M 115.05000000000001 15.75 L 111.05000000000001 15.75 M 111.05000000000001 15.75 M 109.05000000000001 15.75 L 105.05000000000001 15.75 M 105.05000000000001 15.75 M 103.05000000000001 15.75 L 99.05000000000001 15.75 M 99.05000000000001 15.75 M 97.05000000000001 15.75 L 93.05000000000001 15.75 M 93.05000000000001 15.75 M 91.05000000000001 15.75 L 87.05000000000001 15.75 M 87.05000000000001 15.75 M 85.05000000000001 15.75 L 81.05000000000001 15.75 M 81.05000000000001 15.75 M 79.05000000000001 15.75 L 75.05000000000001 15.75 M 75.05000000000001 15.75 M 73.05000000000001 15.75 L 69.05000000000001 15.75 M 69.05000000000001 15.75 M 67.05000000000001 15.75 L 63.05000000000001 15.75 M 63.05000000000001 15.75 M 61.05000000000001 15.75 L 57.05000000000001 15.75 M 57.05000000000001 15.75 M 55.05000000000001 15.75 L 51.05000000000001 15.75 M 51.05000000000001 15.75 M 49.05000000000001 15.75 L 45.05000000000001 15.75 M 45.05000000000001 15.75 M 43.05000000000001 15.75 L 39.05000000000001 15.75 M 39.05000000000001 15.75 M 37.05000000000001 15.75 L 33.05000000000001 15.75 M 33.05000000000001 15.75 M 31.05000000000001 15.75 L 27.05000000000001 15.75 M 27.05000000000001 15.75 M 25.05000000000001 15.75 L 21.05000000000001 15.75 M 21.05000000000001 15.75 M 19.05000000000001 15.75 L 15.050000000000011 15.75 M 15.050000000000011 15.75 M 13.050000000000011 15.75 L 9.050000000000011 15.75 M 9.050000000000011 15.75 Z" stroke-miterlimit="10" opacity="0"></path></g></g></g></g></g><g transform="translate(0,0) matrix(1,0,0,1,30.00000000000003,106.25)"><g><g transform="translate(0,0) scale(1,0.75)"><g><path fill="none" stroke="none" d="M 10 0 L 90 0 Q 100 0 100 10 L 100 90 Q 100 100 90 100 L 10 100 Q 0 100 0 90 L 0 10 Q 0 0 10 0 Z"></path><g transform="scale(1,1.3333333333333333)"><path fill="#b6d7a8" stroke="none" d="M 10 0 L 90 0 Q 100 0 100 10 L 100 65 Q 100 75 90 75 L 10 75 Q 0 75 0 65 L 0 10 Q 0 0 10 0 Z"></path><path fill="none" stroke="#0B599F" d="M 10 0 M 10 0 L 90 0 Q 100 0 100 10 L 100 65 Q 100 75 90 75 L 10 75 Q 0 75 0 65 L 0 10 Q 0 0 10 0 Z" stroke-miterlimit="10" stroke-width="2"></path></g></g></g></g></g><g transform="scale(1,1) matrix(1,0,0,1,32.00000000000003,106.25) translate(2,27.5)"><text fill="rgb(8, 35, 63)" stroke="none" font-family="Arial" font-size="18px" font-style="normal" font-weight="normal" text-decoration="none" x="9.5" y="15">ELT1010</text></g><g transform="translate(0,0) matrix(1,0,0,1,30.00000000000003,225)"><g><g transform="translate(0,0) scale(1,0.75)"><g><path fill="none" stroke="none" d="M 10 0 L 90 0 Q 100 0 100 10 L 100 90 Q 100 100 90 100 L 10 100 Q 0 100 0 90 L 0 10 Q 0 0 10 0 Z"></path><g transform="scale(1,1.3333333333333333)"><path fill="#b6d7a8" stroke="none" d="M 10 0 L 90 0 Q 100 0 100 10 L 100 65 Q 100 75 90 75 L 10 75 Q 0 75 0 65 L 0 10 Q 0 0 10 0 Z"></path><path fill="none" stroke="#0B599F" d="M 10 0 M 10 0 L 90 0 Q 100 0 100 10 L 100 65 Q 100 75 90 75 L 10 75 Q 0 75 0 65 L 0 10 Q 0 0 10 0 Z" stroke-miterlimit="10" stroke-width="2"></path></g></g></g></g></g><g transform="scale(1,1) matrix(1,0,0,1,32.00000000000003,225) translate(2,27.5)"><text fill="rgb(8, 35, 63)" stroke="none" font-family="Arial" font-size="18px" font-style="normal" font-weight="normal" text-decoration="none" x="9.5" y="15">ELT1130</text></g><g transform="translate(0,0) matrix(1,0,0,1,30.00000000000003,315)"><g><g transform="translate(0,0) scale(1,0.75)"><g><path fill="none" stroke="none" d="M 10 0 L 90 0 Q 100 0 100 10 L 100 90 Q 100 100 90 100 L 10 100 Q 0 100 0 90 L 0 10 Q 0 0 10 0 Z"></path><g transform="scale(1,1.3333333333333333)"><path fill="#b6d7a8" stroke="none" d="M 10 0 L 90 0 Q 100 0 100 10 L 100 65 Q 100 75 90 75 L 10 75 Q 0 75 0 65 L 0 10 Q 0 0 10 0 Z"></path><path fill="none" stroke="#0B599F" d="M 10 0 M 10 0 L 90 0 Q 100 0 100 10 L 100 65 Q 100 75 90 75 L 10 75 Q 0 75 0 65 L 0 10 Q 0 0 10 0 Z" stroke-miterlimit="10" stroke-width="2"></path></g></g></g></g></g><g transform="scale(1,1) matrix(1,0,0,1,32.00000000000003,315) translate(2,27.5)"><text fill="rgb(8, 35, 63)" stroke="none" font-family="Arial" font-size="18px" font-style="normal" font-weight="normal" text-decoration="none" x="9.5" y="15">ELT1910</text></g><g transform="translate(0,0) matrix(1,0,0,1,180.00000000000003,470)"><g><g transform="translate(0,0) scale(1,0.75)"><g><path fill="none" stroke="none" d="M 10 0 L 90 0 Q 100 0 100 10 L 100 90 Q 100 100 90 100 L 10 100 Q 0 100 0 90 L 0 10 Q 0 0 10 0 Z"></path><g transform="scale(1,1.3333333333333333)"><path fill="#DDE6F1" stroke="none" d="M 10 0 L 90 0 Q 100 0 100 10 L 100 65 Q 100 75 90 75 L 10 75 Q 0 75 0 65 L 0 10 Q 0 0 10 0 Z"></path><path fill="none" stroke="#0B599F" d="M 10 0 M 10 0 L 90 0 Q 100 0 100 10 L 100 65 Q 100 75 90 75 L 10 75 Q 0 75 0 65 L 0 10 Q 0 0 10 0 Z" stroke-miterlimit="10" stroke-width="2"></path></g></g></g></g></g><g transform="scale(1,1) matrix(1,0,0,1,182.00000000000003,470) translate(2,27.5)"><text fill="rgb(8, 35, 63)" stroke="none" font-family="Arial" font-size="18px" font-style="normal" font-weight="normal" text-decoration="none" x="7.5" y="15">CSE1110</text></g><g transform="translate(0,0) matrix(1,0,0,1,180.00000000000003,62.5)"><g><g transform="translate(0,0) scale(1,0.75)"><g><path fill="none" stroke="none" d="M 10 0 L 90 0 Q 100 0 100 10 L 100 90 Q 100 100 90 100 L 10 100 Q 0 100 0 90 L 0 10 Q 0 0 10 0 Z"></path><g transform="scale(1,1.3333333333333333)"><path fill="#DDE6F1" stroke="none" d="M 10 0 L 90 0 Q 100 0 100 10 L 100 65 Q 100 75 90 75 L 10 75 Q 0 75 0 65 L 0 10 Q 0 0 10 0 Z"></path><path fill="none" stroke="#0B599F" d="M 10 0 M 10 0 L 90 0 Q 100 0 100 10 L 100 65 Q 100 75 90 75 L 10 75 Q 0 75 0 65 L 0 10 Q 0 0 10 0 Z" stroke-miterlimit="10" stroke-width="2"></path></g></g></g></g></g><g transform="scale(1,1) matrix(1,0,0,1,182.00000000000003,62.5) translate(2,27.5)"><text fill="rgb(8, 35, 63)" stroke="none" font-family="Arial" font-size="18px" font-style="normal" font-weight="normal" text-decoration="none" x="9.5" y="15">ELT1080</text></g><g transform="translate(0,0) matrix(1,0,0,1,180.00000000000003,150)"><g><g transform="translate(0,0) scale(1,0.75)"><g><path fill="none" stroke="none" d="M 10 0 L 90 0 Q 100 0 100 10 L 100 90 Q 100 100 90 100 L 10 100 Q 0 100 0 90 L 0 10 Q 0 0 10 0 Z"></path><g transform="scale(1,1.3333333333333333)"><path fill="#DDE6F1" stroke="none" d="M 10 0 L 90 0 Q 100 0 100 10 L 100 65 Q 100 75 90 75 L 10 75 Q 0 75 0 65 L 0 10 Q 0 0 10 0 Z"></path><path fill="none" stroke="#0B599F" d="M 10 0 M 10 0 L 90 0 Q 100 0 100 10 L 100 65 Q 100 75 90 75 L 10 75 Q 0 75 0 65 L 0 10 Q 0 0 10 0 Z" stroke-miterlimit="10" stroke-width="2"></path></g></g></g></g></g><g transform="scale(1,1) matrix(1,0,0,1,182.00000000000003,150) translate(2,27.5)"><text fill="rgb(8, 35, 63)" stroke="none" font-family="Arial" font-size="18px" font-style="normal" font-weight="normal" text-decoration="none" x="9.5" y="15">ELT1140</text></g><g transform="matrix(1,0,0,1,125.50000000000003,95.5)"><g transform="translate(0,0)"><g transform="translate(-130.00000000000003,-142.25) translate(4.5,46.75) matrix(1,0,0,1,0,0)"><g><path fill="none" stroke="#0B599F" d="M 130.00000000000003 143.75 L 180.00000000000003 100" stroke-miterlimit="10" stroke-width="2"></path></g></g></g></g><g transform="matrix(1,0,0,1,125.50000000000003,139.25)"><g transform="translate(0,0)"><g transform="translate(-127.00000000000003,-147.25) translate(1.5,8) matrix(1,0,0,1,0,0)"><g><path fill="none" stroke="#0B599F" d="M 130.00000000000003 143.75 L 180.00000000000003 187.5" stroke-miterlimit="10" stroke-width="2"></path></g></g></g></g><g transform="translate(0,0) matrix(1,0,0,1,330,425)"><g><g transform="translate(0,0) scale(1,0.75)"><g><path fill="none" stroke="none" d="M 10 0 L 90 0 Q 100 0 100 10 L 100 90 Q 100 100 90 100 L 10 100 Q 0 100 0 90 L 0 10 Q 0 0 10 0 Z"></path><g transform="scale(1,1.3333333333333333)"><path fill="#DDE6F1" stroke="none" d="M 10 0 L 90 0 Q 100 0 100 10 L 100 65 Q 100 75 90 75 L 10 75 Q 0 75 0 65 L 0 10 Q 0 0 10 0 Z"></path><path fill="none" stroke="#0B599F" d="M 10 0 M 10 0 L 90 0 Q 100 0 100 10 L 100 65 Q 100 75 90 75 L 10 75 Q 0 75 0 65 L 0 10 Q 0 0 10 0 Z" stroke-miterlimit="10" stroke-width="2"></path></g></g></g></g></g><g transform="scale(1,1) matrix(1,0,0,1,332,425) translate(2,27.5)"><text fill="rgb(8, 35, 63)" stroke="none" font-family="Arial" font-size="18px" font-style="normal" font-weight="normal" text-decoration="none" x="7.5" y="15">CSE1120</text></g><g transform="translate(0,0) matrix(1,0,0,1,330,515)"><g><g transform="translate(0,0) scale(1,0.75)"><g><path fill="none" stroke="none" d="M 10 0 L 90 0 Q 100 0 100 10 L 100 90 Q 100 100 90 100 L 10 100 Q 0 100 0 90 L 0 10 Q 0 0 10 0 Z"></path><g transform="scale(1,1.3333333333333333)"><path fill="#DDE6F1" stroke="none" d="M 10 0 L 90 0 Q 100 0 100 10 L 100 65 Q 100 75 90 75 L 10 75 Q 0 75 0 65 L 0 10 Q 0 0 10 0 Z"></path><path fill="none" stroke="#20124d" d="M 10 0 M 10 0 L 90 0 Q 100 0 100 10 L 100 65 Q 100 75 90 75 L 10 75 Q 0 75 0 65 L 0 10 Q 0 0 10 0 Z" stroke-miterlimit="10" stroke-width="2"></path></g></g></g></g></g><g transform="scale(1,1) matrix(1,0,0,1,332,515) translate(2,27.5)"><text fill="rgb(8, 35, 63)" stroke="none" font-family="Arial" font-size="18px" font-style="normal" font-weight="normal" text-decoration="none" x="7.5" y="15">CSE1240</text></g><g transform="translate(0,0) matrix(1,0,0,1,30.00000000000003,470)"><g><g transform="translate(0,0) scale(1,0.75)"><g><path fill="none" stroke="none" d="M 10 0 L 90 0 Q 100 0 100 10 L 100 90 Q 100 100 90 100 L 10 100 Q 0 100 0 90 L 0 10 Q 0 0 10 0 Z"></path><g transform="scale(1,1.3333333333333333)"><path fill="#b6d7a8" stroke="none" d="M 10 0 L 90 0 Q 100 0 100 10 L 100 65 Q 100 75 90 75 L 10 75 Q 0 75 0 65 L 0 10 Q 0 0 10 0 Z"></path><path fill="none" stroke="#20124d" d="M 10 0 M 10 0 L 90 0 Q 100 0 100 10 L 100 65 Q 100 75 90 75 L 10 75 Q 0 75 0 65 L 0 10 Q 0 0 10 0 Z" stroke-miterlimit="10" stroke-width="2"></path></g></g></g></g></g><g transform="scale(1,1) matrix(1,0,0,1,32.00000000000003,470) translate(2,27.5)"><text fill="rgb(8, 35, 63)" stroke="none" font-family="Arial" font-size="18px" font-style="normal" font-weight="normal" text-decoration="none" x="7.5" y="15">CSE1010</text></g><g transform="translate(0,0) matrix(1,0,0,1,330,25)"><g><g transform="translate(0,0) scale(1,0.75)"><g><path fill="none" stroke="none" d="M 10 0 L 90 0 Q 100 0 100 10 L 100 90 Q 100 100 90 100 L 10 100 Q 0 100 0 90 L 0 10 Q 0 0 10 0 Z"></path><g transform="scale(1,1.3333333333333333)"><path fill="#DDE6F1" stroke="none" d="M 10 0 L 90 0 Q 100 0 100 10 L 100 65 Q 100 75 90 75 L 10 75 Q 0 75 0 65 L 0 10 Q 0 0 10 0 Z"></path><path fill="none" stroke="#20124d" d="M 10 0 M 10 0 L 90 0 Q 100 0 100 10 L 100 65 Q 100 75 90 75 L 10 75 Q 0 75 0 65 L 0 10 Q 0 0 10 0 Z" stroke-miterlimit="10" stroke-width="2"></path></g></g></g></g></g><g transform="scale(1,1) matrix(1,0,0,1,332,25) translate(2,27.5)"><text fill="rgb(8, 35, 63)" stroke="none" font-family="Arial" font-size="18px" font-style="normal" font-weight="normal" text-decoration="none" x="9.5" y="15">ELT2080</text></g><g transform="matrix(1,0,0,1,275.5,58)"><g transform="translate(0,0)"><g transform="translate(-280,-100.5) translate(4.5,42.5) matrix(1,0,0,1,0,0)"><g><path fill="none" stroke="#0B599F" d="M 280 100 L 330 62.5" stroke-miterlimit="10" stroke-width="2"></path></g></g></g></g><g transform="translate(0,0) matrix(1,0,0,1,330,106.25)"><g><g transform="translate(0,0) scale(1,0.75)"><g><path fill="none" stroke="none" d="M 10 0 L 90 0 Q 100 0 100 10 L 100 90 Q 100 100 90 100 L 10 100 Q 0 100 0 90 L 0 10 Q 0 0 10 0 Z"></path><g transform="scale(1,1.3333333333333333)"><path fill="#DDE6F1" stroke="none" d="M 10 0 L 90 0 Q 100 0 100 10 L 100 65 Q 100 75 90 75 L 10 75 Q 0 75 0 65 L 0 10 Q 0 0 10 0 Z"></path><path fill="none" stroke="#20124d" d="M 10 0 M 10 0 L 90 0 Q 100 0 100 10 L 100 65 Q 100 75 90 75 L 10 75 Q 0 75 0 65 L 0 10 Q 0 0 10 0 Z" stroke-miterlimit="10" stroke-width="2"></path></g></g></g></g></g><g transform="scale(1,1) matrix(1,0,0,1,332,106.25) translate(2,27.5)"><text fill="rgb(8, 35, 63)" stroke="none" font-family="Arial" font-size="18px" font-style="normal" font-weight="normal" text-decoration="none" x="9.5" y="15">ELT2130</text></g><g transform="matrix(1,0,0,1,125.50000000000003,139.25)"><g transform="translate(0,0)"><g transform="translate(-330,-149) translate(204.49999999999997,9.75) matrix(1,0,0,1,0,0)"><g><path fill="none" stroke="#0B599F" d="M 330 143.75 L 130.00000000000003 143.75" stroke-miterlimit="10" stroke-width="2"></path></g></g></g></g><g transform="translate(0,0) matrix(1,0,0,1,330,225)"><g><g transform="translate(0,0) scale(1,0.75)"><g><path fill="none" stroke="none" d="M 10 0 L 90 0 Q 100 0 100 10 L 100 90 Q 100 100 90 100 L 10 100 Q 0 100 0 90 L 0 10 Q 0 0 10 0 Z"></path><g transform="scale(1,1.3333333333333333)"><path fill="#DDE6F1" stroke="none" d="M 10 0 L 90 0 Q 100 0 100 10 L 100 65 Q 100 75 90 75 L 10 75 Q 0 75 0 65 L 0 10 Q 0 0 10 0 Z"></path><path fill="none" stroke="#20124d" d="M 10 0 M 10 0 L 90 0 Q 100 0 100 10 L 100 65 Q 100 75 90 75 L 10 75 Q 0 75 0 65 L 0 10 Q 0 0 10 0 Z" stroke-miterlimit="10" stroke-width="2"></path></g></g></g></g></g><g transform="scale(1,1) matrix(1,0,0,1,332,225) translate(2,27.5)"><text fill="rgb(8, 35, 63)" stroke="none" font-family="Arial" font-size="18px" font-style="normal" font-weight="normal" text-decoration="none" x="9.5" y="15">ELT2140</text></g><g transform="matrix(1,0,0,1,125.50000000000003,258)"><g transform="translate(0,0)"><g transform="translate(-134.00000000000003,-263) translate(8.5,5) matrix(1,0,0,1,0,0)"><g><path fill="none" stroke="#0B599F" d="M 130.00000000000003 262.5 L 330 262.5" stroke-miterlimit="10" stroke-width="2"></path></g></g></g></g><g transform="matrix(1,0,0,1,275.5,183)"><g transform="translate(0,0)"><g transform="translate(-282,-190) translate(6.5,7) matrix(1,0,0,1,0,0)"><g><path fill="none" stroke="#0B599F" d="M 280 187.5 L 330 262.5" stroke-miterlimit="10" stroke-width="2"></path></g></g></g></g><g transform="translate(0,0) matrix(1,0,0,1,470,25)"><g><g transform="translate(0,0) scale(1,0.75)"><g><path fill="none" stroke="none" d="M 10 0 L 90 0 Q 100 0 100 10 L 100 90 Q 100 100 90 100 L 10 100 Q 0 100 0 90 L 0 10 Q 0 0 10 0 Z"></path><g transform="scale(1,1.3333333333333333)"><path fill="#DDE6F1" stroke="none" d="M 10 0 L 90 0 Q 100 0 100 10 L 100 65 Q 100 75 90 75 L 10 75 Q 0 75 0 65 L 0 10 Q 0 0 10 0 Z"></path><path fill="none" stroke="#20124d" d="M 10 0 M 10 0 L 90 0 Q 100 0 100 10 L 100 65 Q 100 75 90 75 L 10 75 Q 0 75 0 65 L 0 10 Q 0 0 10 0 Z" stroke-miterlimit="10" stroke-width="2"></path></g></g></g></g></g><g transform="scale(1,1) matrix(1,0,0,1,472,25) translate(2,27.5)"><text fill="rgb(8, 35, 63)" stroke="none" font-family="Arial" font-size="18px" font-style="normal" font-weight="normal" text-decoration="none" x="9.5" y="15">ELT2180</text></g><g transform="translate(0,0) matrix(1,0,0,1,330,315)"><g><g transform="translate(0,0) scale(1,0.75)"><g><path fill="none" stroke="none" d="M 10 0 L 90 0 Q 100 0 100 10 L 100 90 Q 100 100 90 100 L 10 100 Q 0 100 0 90 L 0 10 Q 0 0 10 0 Z"></path><g transform="scale(1,1.3333333333333333)"><path fill="#DDE6F1" stroke="none" d="M 10 0 L 90 0 Q 100 0 100 10 L 100 65 Q 100 75 90 75 L 10 75 Q 0 75 0 65 L 0 10 Q 0 0 10 0 Z"></path><path fill="none" stroke="#20124d" d="M 10 0 M 10 0 L 90 0 Q 100 0 100 10 L 100 65 Q 100 75 90 75 L 10 75 Q 0 75 0 65 L 0 10 Q 0 0 10 0 Z" stroke-miterlimit="10" stroke-width="2"></path></g></g></g></g></g><g transform="scale(1,1) matrix(1,0,0,1,332,315) translate(2,27.5)"><text fill="rgb(8, 35, 63)" stroke="none" font-family="Arial" font-size="18px" font-style="normal" font-weight="normal" text-decoration="none" x="9.5" y="15">ELT2910</text></g><g transform="matrix(1,0,0,1,275.5,458)"><g transform="translate(0,0)"><g transform="translate(-269,-504) translate(-6.5,46) matrix(1,0,0,1,0,0)"><g><path fill="none" stroke="#0B599F" d="M 280 507.5 L 330 462.5" stroke-miterlimit="10" stroke-width="2"></path></g></g></g></g><g transform="matrix(1,0,0,1,275.5,503)"><g transform="translate(0,0)"><g transform="translate(-319,-551) translate(43.5,48) matrix(1,0,0,1,0,0)"><g><path fill="none" stroke="#0B599F" d="M 330 552.5 L 280 507.5" stroke-miterlimit="10" stroke-width="2"></path></g></g></g></g><g transform="matrix(1,0,0,1,125.50000000000003,503)"><g transform="translate(0,0)"><g transform="translate(-133.00000000000003,-504.25) translate(7.5,1.25) matrix(1,0,0,1,0,0)"><g><path fill="none" stroke="#660000" d="M 130.00000000000003 507.5 L 180.00000000000003 507.5" stroke-miterlimit="10" stroke-width="2"></path></g></g></g></g><g transform="matrix(1,0,0,1,125.50000000000003,348)"><g transform="translate(0,0)"><g transform="translate(-132.00000000000003,-350.25) translate(6.5,2.25) matrix(1,0,0,1,0,0)"><g><path fill="none" stroke="#660000" d="M 130.00000000000003 352.5 L 330 352.5" stroke-miterlimit="10" stroke-width="2"></path></g></g></g></g><g transform="matrix(1,0,0,1,425.5,58)"><g transform="translate(0,0)"><g transform="translate(-467,-58) translate(41.5,0) matrix(1,0,0,1,0,0)"><g><path fill="none" stroke="#660000" d="M 470 62.5 L 430 62.5" stroke-miterlimit="10" stroke-width="2"></path></g></g></g></g><g transform="scale(1,1) matrix(1,0,0,1,543.5,130) translate(2,0)"><text fill="rgb(8, 35, 63)" stroke="none" font-family="Arial" font-size="18px" font-style="normal" font-weight="normal" text-decoration="none" x="57.5" y="15">Legend</text></g><g transform="translate(0,0) matrix(1,0,0,1,500,160.5)"><g><g transform="translate(0,0) scale(1,0.75)"><g><path fill="none" stroke="none" d="M 10 0 L 90 0 Q 100 0 100 10 L 100 90 Q 100 100 90 100 L 10 100 Q 0 100 0 90 L 0 10 Q 0 0 10 0 Z"></path><g transform="scale(1,1.3333333333333333)"><path fill="rgb(255,255,255)" stroke="none" d="M 10 0 L 90 0 Q 100 0 100 10 L 100 65 Q 100 75 90 75 L 10 75 Q 0 75 0 65 L 0 10 Q 0 0 10 0 Z" fill-opacity="0.008"></path><path fill="none" stroke="#0B599F" d="M 10 0 M 10 0 L 90 0 Q 100 0 100 10 L 100 65 Q 100 75 90 75 L 10 75 Q 0 75 0 65 L 0 10 Q 0 0 10 0 Z" stroke-miterlimit="10" stroke-width="2"></path></g></g></g></g></g><g transform="scale(1,1) matrix(1,0,0,1,615,189.25) translate(2,0)"><text fill="rgb(8, 35, 63)" stroke="none" font-family="Arial" font-size="18px" font-style="normal" font-weight="normal" text-decoration="none" x="0" y="15">Old course</text></g><g transform="translate(0,0) matrix(1,0,0,1,500,253)"><g><g transform="translate(0,0) scale(1,0.75)"><g><path fill="none" stroke="none" d="M 10 0 L 90 0 Q 100 0 100 10 L 100 90 Q 100 100 90 100 L 10 100 Q 0 100 0 90 L 0 10 Q 0 0 10 0 Z"></path><g transform="scale(1,1.3333333333333333)"><path fill="rgb(255,255,255)" stroke="none" d="M 10 0 L 90 0 Q 100 0 100 10 L 100 65 Q 100 75 90 75 L 10 75 Q 0 75 0 65 L 0 10 Q 0 0 10 0 Z" fill-opacity="0.008"></path><path fill="none" stroke="#20124d" d="M 10 0 M 10 0 L 90 0 Q 100 0 100 10 L 100 65 Q 100 75 90 75 L 10 75 Q 0 75 0 65 L 0 10 Q 0 0 10 0 Z" stroke-miterlimit="10" stroke-width="2"></path></g></g></g></g></g><g transform="scale(1,1) matrix(1,0,0,1,615,280.5) translate(2,0)"><text fill="rgb(8, 35, 63)" stroke="none" font-family="Arial" font-size="18px" font-style="normal" font-weight="normal" text-decoration="none" x="0" y="15">New course</text></g><g transform="translate(0,0) matrix(1,0,0,1,500,345.5)"><g><g transform="translate(0,0) scale(1,0.75)"><g><path fill="none" stroke="none" d="M 10 0 L 90 0 Q 100 0 100 10 L 100 90 Q 100 100 90 100 L 10 100 Q 0 100 0 90 L 0 10 Q 0 0 10 0 Z"></path><g transform="scale(1,1.3333333333333333)"><path fill="#b6d7a8" stroke="none" d="M 10 0 L 90 0 Q 100 0 100 10 L 100 65 Q 100 75 90 75 L 10 75 Q 0 75 0 65 L 0 10 Q 0 0 10 0 Z"></path><path fill="none" stroke="rgb(0,0,0)" d="M 10 0 M 10 0 L 90 0 Q 100 0 100 10 L 100 65 Q 100 75 90 75 L 10 75 Q 0 75 0 65 L 0 10 Q 0 0 10 0 Z" stroke-opacity="0" stroke-miterlimit="10" stroke-width="2"></path></g></g></g></g></g><g transform="scale(1,1) matrix(1,0,0,1,615,373) translate(2,0)"><text fill="rgb(8, 35, 63)" stroke="none" font-family="Arial" font-size="18px" font-style="normal" font-weight="normal" text-decoration="none" x="0" y="15">Starting course</text></g><g transform="matrix(1,0,0,1,496,452)"><g transform="translate(0,0)"><g transform="translate(-500.5,-456.5) translate(4.5,4.5) matrix(1,0,0,1,0,0)"><g><path fill="none" stroke="#0B599F" d="M 500.5 456.5 L 601.5 456.5" stroke-miterlimit="10" stroke-width="2"></path></g></g></g></g><g transform="matrix(1,0,0,1,495,507)"><g transform="translate(0,0)"><g transform="translate(-499.5,-511.5) translate(4.5,4.5) matrix(1,0,0,1,0,0)"><g><path fill="none" stroke="#660000" d="M 499.5 511.5 L 601.5196059588546 511.5" stroke-miterlimit="10" stroke-width="2"></path></g></g></g></g><g transform="scale(1,1) matrix(1,0,0,1,615,445.5) translate(2,0)"><text fill="rgb(8, 35, 63)" stroke="none" font-family="Arial" font-size="18px" font-style="normal" font-weight="normal" text-decoration="none" x="0" y="15">Pre-requisite</text></g><g transform="scale(1,1) matrix(1,0,0,1,615,488) translate(2,0)"><text fill="rgb(8, 35, 63)" stroke="none" font-family="Arial" font-size="18px" font-style="normal" font-weight="normal" text-decoration="none" x="0" y="15">Recommended </text><text fill="rgb(8, 35, 63)" stroke="none" font-family="Arial" font-size="18px" font-style="normal" font-weight="normal" text-decoration="none" x="0" y="36">pre-requisite</text></g><g transform="translate(0.5,0.5) matrix(1,0,0,1,503.5,541.75)"><g><g transform="translate(0,0) scale(1,0.4)"><g><path fill="#d9d9d9" stroke="none" d="M 0 0 L 100 0 Q 100 0 100 0 L 100 100 Q 100 100 100 100 L 0 100 Q 0 100 0 100 L 0 0 Q 0 0 0 0 Z"></path><g transform="scale(1,2.5)"><path fill="none" stroke="none" d="M 0 0 L 100 0 Q 100 0 100 0 L 100 40 Q 100 40 100 40 L 0 40 Q 0 40 0 40 L 0 0 Q 0 0 0 0 Z"></path><path fill="none" stroke="rgb(0,0,0)" d="M 0 0 M 0 0 L 100 0 Q 100 0 100 0 L 100 40 Q 100 40 100 40 L 0 40 Q 0 40 0 40 L 0 0 Q 0 0 0 0 Z" stroke-opacity="0" stroke-miterlimit="10"></path></g></g><g><g transform="scale(1,2.5)"><path fill="rgb(0,0,0)" stroke="none" d="M 2 0.8 L 2 38.800000000000004 L 97 38.800000000000004 L 97 1.2000000000000002 L 3 1.2000000000000002 Z" fill-opacity="0" opacity="0"></path><path fill="none" stroke="#3C7626" d="M 2 0.8 M 2 0.8 L 2 4.8 M 2 4.8 M 2 6.8 L 2 10.8 M 2 10.8 M 2 12.8 L 2 16.8 M 2 16.8 M 2 18.8 L 2 22.8 M 2 22.8 M 2 24.8 L 2 28.8 M 2 28.8 M 2 30.8 L 2 34.8 M 2 34.8 M 2 36.8 L 2 38.800000000000004 L 3.999999999999993 38.800000000000004 M 3.999999999999993 38.800000000000004 M 5.999999999999993 38.800000000000004 L 9.999999999999993 38.800000000000004 M 9.999999999999993 38.800000000000004 M 11.999999999999993 38.800000000000004 L 15.999999999999993 38.800000000000004 M 15.999999999999993 38.800000000000004 M 17.999999999999993 38.800000000000004 L 21.999999999999993 38.800000000000004 M 21.999999999999993 38.800000000000004 M 23.999999999999993 38.800000000000004 L 27.999999999999993 38.800000000000004 M 27.999999999999993 38.800000000000004 M 29.999999999999993 38.800000000000004 L 33.99999999999999 38.800000000000004 M 33.99999999999999 38.800000000000004 M 35.99999999999999 38.800000000000004 L 39.99999999999999 38.800000000000004 M 39.99999999999999 38.800000000000004 M 41.99999999999999 38.800000000000004 L 45.99999999999999 38.800000000000004 M 45.99999999999999 38.800000000000004 M 47.99999999999999 38.800000000000004 L 51.99999999999999 38.800000000000004 M 51.99999999999999 38.800000000000004 M 53.99999999999999 38.800000000000004 L 57.99999999999999 38.800000000000004 M 57.99999999999999 38.800000000000004 M 59.99999999999999 38.800000000000004 L 63.99999999999999 38.800000000000004 M 63.99999999999999 38.800000000000004 M 66 38.800000000000004 L 70 38.800000000000004 M 70 38.800000000000004 M 72 38.800000000000004 L 76 38.800000000000004 M 76 38.800000000000004 M 78 38.800000000000004 L 82 38.800000000000004 M 82 38.800000000000004 M 84 38.800000000000004 L 88 38.800000000000004 M 88 38.800000000000004 M 90 38.800000000000004 L 94 38.800000000000004 M 94 38.800000000000004 M 96 38.800000000000004 L 97 38.800000000000004 L 97 35.800000000000004 M 97 35.800000000000004 M 97 33.800000000000004 L 97 29.800000000000004 M 97 29.800000000000004 M 97 27.800000000000004 L 97 23.800000000000004 M 97 23.800000000000004 M 97 21.800000000000004 L 97 17.800000000000004 M 97 17.800000000000004 M 97 15.800000000000004 L 97 11.800000000000004 M 97 11.800000000000004 M 97 9.800000000000004 L 97 5.800000000000004 M 97 5.800000000000004 M 97 3.8000000000000043 L 97 1.2000000000000002 L 95.60000000000001 1.2000000000000002 M 95.60000000000001 1.2000000000000002 M 93.60000000000001 1.2000000000000002 L 89.60000000000001 1.2000000000000002 M 89.60000000000001 1.2000000000000002 M 87.60000000000001 1.2000000000000002 L 83.60000000000001 1.2000000000000002 M 83.60000000000001 1.2000000000000002 M 81.60000000000001 1.2000000000000002 L 77.60000000000001 1.2000000000000002 M 77.60000000000001 1.2000000000000002 M 75.60000000000001 1.2000000000000002 L 71.60000000000001 1.2000000000000002 M 71.60000000000001 1.2000000000000002 M 69.60000000000001 1.2000000000000002 L 65.60000000000001 1.2000000000000002 M 65.60000000000001 1.2000000000000002 M 63.60000000000001 1.2000000000000002 L 59.60000000000001 1.2000000000000002 M 59.60000000000001 1.2000000000000002 M 57.60000000000001 1.2000000000000002 L 53.60000000000001 1.2000000000000002 M 53.60000000000001 1.2000000000000002 M 51.60000000000001 1.2000000000000002 L 47.60000000000001 1.2000000000000002 M 47.60000000000001 1.2000000000000002 M 45.60000000000001 1.2000000000000002 L 41.60000000000001 1.2000000000000002 M 41.60000000000001 1.2000000000000002 M 39.60000000000001 1.2000000000000002 L 35.60000000000001 1.2000000000000002 M 35.60000000000001 1.2000000000000002 M 33.60000000000001 1.2000000000000002 L 29.60000000000001 1.2000000000000002 M 29.60000000000001 1.2000000000000002 M 27.60000000000001 1.2000000000000002 L 23.60000000000001 1.2000000000000002 M 23.60000000000001 1.2000000000000002 M 21.60000000000001 1.2000000000000002 L 17.60000000000001 1.2000000000000002 M 17.60000000000001 1.2000000000000002 M 15.600000000000009 1.2000000000000002 L 11.600000000000009 1.2000000000000002 M 11.600000000000009 1.2000000000000002 M 9.600000000000009 1.2000000000000002 L 5.6000000000000085 1.2000000000000002 M 5.6000000000000085 1.2000000000000002 M 3.6000000000000085 1.2000000000000002 L 3 1.2000000000000002 Z" stroke-miterlimit="10" opacity="0"></path></g></g></g></g></g><g transform="scale(1,1) matrix(1,0,0,1,615,551.75) translate(2,0)"><text fill="rgb(8, 35, 63)" stroke="none" font-family="Arial" font-size="18px" font-style="normal" font-weight="normal" text-decoration="none" x="0" y="15">First Year</text></g><g transform="translate(0.5,0.5) matrix(1,0,0,1,503.5,603)"><g><g transform="translate(0,0) scale(1,0.4)"><g><path fill="#cccccc" stroke="none" d="M 0 0 L 100 0 Q 100 0 100 0 L 100 100 Q 100 100 100 100 L 0 100 Q 0 100 0 100 L 0 0 Q 0 0 0 0 Z"></path><g transform="scale(1,2.5)"><path fill="none" stroke="none" d="M 0 0 L 100 0 Q 100 0 100 0 L 100 40 Q 100 40 100 40 L 0 40 Q 0 40 0 40 L 0 0 Q 0 0 0 0 Z"></path><path fill="none" stroke="rgb(0,0,0)" d="M 0 0 M 0 0 L 100 0 Q 100 0 100 0 L 100 40 Q 100 40 100 40 L 0 40 Q 0 40 0 40 L 0 0 Q 0 0 0 0 Z" stroke-opacity="0" stroke-miterlimit="10"></path></g></g><g><g transform="scale(1,2.5)"><path fill="rgb(0,0,0)" stroke="none" d="M 2 0.8 L 2 38.800000000000004 L 97 38.800000000000004 L 97 1.2000000000000002 L 3 1.2000000000000002 Z" fill-opacity="0" opacity="0"></path><path fill="none" stroke="#3C7626" d="M 2 0.8 M 2 0.8 L 2 4.8 M 2 4.8 M 2 6.8 L 2 10.8 M 2 10.8 M 2 12.8 L 2 16.8 M 2 16.8 M 2 18.8 L 2 22.8 M 2 22.8 M 2 24.8 L 2 28.8 M 2 28.8 M 2 30.8 L 2 34.8 M 2 34.8 M 2 36.8 L 2 38.800000000000004 L 3.999999999999993 38.800000000000004 M 3.999999999999993 38.800000000000004 M 5.999999999999993 38.800000000000004 L 9.999999999999993 38.800000000000004 M 9.999999999999993 38.800000000000004 M 11.999999999999993 38.800000000000004 L 15.999999999999993 38.800000000000004 M 15.999999999999993 38.800000000000004 M 17.999999999999993 38.800000000000004 L 21.999999999999993 38.800000000000004 M 21.999999999999993 38.800000000000004 M 23.999999999999993 38.800000000000004 L 27.999999999999993 38.800000000000004 M 27.999999999999993 38.800000000000004 M 29.999999999999993 38.800000000000004 L 33.99999999999999 38.800000000000004 M 33.99999999999999 38.800000000000004 M 35.99999999999999 38.800000000000004 L 39.99999999999999 38.800000000000004 M 39.99999999999999 38.800000000000004 M 41.99999999999999 38.800000000000004 L 45.99999999999999 38.800000000000004 M 45.99999999999999 38.800000000000004 M 47.99999999999999 38.800000000000004 L 51.99999999999999 38.800000000000004 M 51.99999999999999 38.800000000000004 M 53.99999999999999 38.800000000000004 L 57.99999999999999 38.800000000000004 M 57.99999999999999 38.800000000000004 M 59.99999999999999 38.800000000000004 L 63.99999999999999 38.800000000000004 M 63.99999999999999 38.800000000000004 M 66 38.800000000000004 L 70 38.800000000000004 M 70 38.800000000000004 M 72 38.800000000000004 L 76 38.800000000000004 M 76 38.800000000000004 M 78 38.800000000000004 L 82 38.800000000000004 M 82 38.800000000000004 M 84 38.800000000000004 L 88 38.800000000000004 M 88 38.800000000000004 M 90 38.800000000000004 L 94 38.800000000000004 M 94 38.800000000000004 M 96 38.800000000000004 L 97 38.800000000000004 L 97 35.800000000000004 M 97 35.800000000000004 M 97 33.800000000000004 L 97 29.800000000000004 M 97 29.800000000000004 M 97 27.800000000000004 L 97 23.800000000000004 M 97 23.800000000000004 M 97 21.800000000000004 L 97 17.800000000000004 M 97 17.800000000000004 M 97 15.800000000000004 L 97 11.800000000000004 M 97 11.800000000000004 M 97 9.800000000000004 L 97 5.800000000000004 M 97 5.800000000000004 M 97 3.8000000000000043 L 97 1.2000000000000002 L 95.60000000000001 1.2000000000000002 M 95.60000000000001 1.2000000000000002 M 93.60000000000001 1.2000000000000002 L 89.60000000000001 1.2000000000000002 M 89.60000000000001 1.2000000000000002 M 87.60000000000001 1.2000000000000002 L 83.60000000000001 1.2000000000000002 M 83.60000000000001 1.2000000000000002 M 81.60000000000001 1.2000000000000002 L 77.60000000000001 1.2000000000000002 M 77.60000000000001 1.2000000000000002 M 75.60000000000001 1.2000000000000002 L 71.60000000000001 1.2000000000000002 M 71.60000000000001 1.2000000000000002 M 69.60000000000001 1.2000000000000002 L 65.60000000000001 1.2000000000000002 M 65.60000000000001 1.2000000000000002 M 63.60000000000001 1.2000000000000002 L 59.60000000000001 1.2000000000000002 M 59.60000000000001 1.2000000000000002 M 57.60000000000001 1.2000000000000002 L 53.60000000000001 1.2000000000000002 M 53.60000000000001 1.2000000000000002 M 51.60000000000001 1.2000000000000002 L 47.60000000000001 1.2000000000000002 M 47.60000000000001 1.2000000000000002 M 45.60000000000001 1.2000000000000002 L 41.60000000000001 1.2000000000000002 M 41.60000000000001 1.2000000000000002 M 39.60000000000001 1.2000000000000002 L 35.60000000000001 1.2000000000000002 M 35.60000000000001 1.2000000000000002 M 33.60000000000001 1.2000000000000002 L 29.60000000000001 1.2000000000000002 M 29.60000000000001 1.2000000000000002 M 27.60000000000001 1.2000000000000002 L 23.60000000000001 1.2000000000000002 M 23.60000000000001 1.2000000000000002 M 21.60000000000001 1.2000000000000002 L 17.60000000000001 1.2000000000000002 M 17.60000000000001 1.2000000000000002 M 15.600000000000009 1.2000000000000002 L 11.600000000000009 1.2000000000000002 M 11.600000000000009 1.2000000000000002 M 9.600000000000009 1.2000000000000002 L 5.6000000000000085 1.2000000000000002 M 5.6000000000000085 1.2000000000000002 M 3.6000000000000085 1.2000000000000002 L 3 1.2000000000000002 Z" stroke-miterlimit="10" opacity="0"></path></g></g></g></g></g><g transform="scale(1,1) matrix(1,0,0,1,615,613) translate(2,0)"><text fill="rgb(8, 35, 63)" stroke="none" font-family="Arial" font-size="18px" font-style="normal" font-weight="normal" text-decoration="none" x="0" y="15">Second Year</text></g></g></svg>